<?xml version="1.0" encoding="UTF-8" standalone="no"?>
<!-- Generator: Adobe Illustrator 15.1.0, SVG Export Plug-In . SVG Version: 6.00 Build 0)  -->

<svg
   xmlns:dc="http://purl.org/dc/elements/1.1/"
   xmlns:cc="http://creativecommons.org/ns#"
   xmlns:rdf="http://www.w3.org/1999/02/22-rdf-syntax-ns#"
   xmlns:svg="http://www.w3.org/2000/svg"
   xmlns="http://www.w3.org/2000/svg"
   xmlns:sodipodi="http://sodipodi.sourceforge.net/DTD/sodipodi-0.dtd"
   xmlns:inkscape="http://www.inkscape.org/namespaces/inkscape"
   version="1.1"
   id="Layer_1"
   x="0px"
   y="0px"
   width="709.29492"
   height="441.40958"
   viewBox="0 0 709.29492 441.40958"
   enable-background="new 0 0 800 600"
   xml:space="preserve"
   sodipodi:docname="BS-Logo.svg"
   inkscape:version="0.92.4 (5da689c313, 2019-01-14)"><metadata
   id="metadata59"><rdf:RDF><cc:Work
       rdf:about=""><dc:format>image/svg+xml</dc:format><dc:type
         rdf:resource="http://purl.org/dc/dcmitype/StillImage" /></cc:Work></rdf:RDF></metadata><defs
   id="defs57">
	
	
	
	
</defs><sodipodi:namedview
   pagecolor="#ffffff"
   bordercolor="#666666"
   borderopacity="1"
   objecttolerance="10"
   gridtolerance="10"
   guidetolerance="10"
   inkscape:pageopacity="0"
   inkscape:pageshadow="2"
   inkscape:window-width="1920"
   inkscape:window-height="1016"
   id="namedview55"
   showgrid="false"
   inkscape:zoom="0.39333333"
   inkscape:cx="399.78091"
   inkscape:cy="142.12456"
   inkscape:window-x="0"
   inkscape:window-y="27"
   inkscape:window-maximized="1"
   inkscape:current-layer="Layer_1" />
<path
   style="fill:none"
   inkscape:connector-curvature="0"
   id="path2"
   d="M 219.93491,597.759" /><g
   id="g38"
   transform="translate(-0.21908685,-0.715)">
		<g
   id="g10">
			<path
   style="fill:#ffee00"
   inkscape:connector-curvature="0"
   id="path4"
   d="m 24.094,378.748 c -34.763,-76.131 30.871,-103.641 30.871,-103.641 0,0 212.471,-96.694 280.747,-127.87 68.274,-31.176 165.499,-15.129 165.499,-15.129 l 23.749,-63.662 89.035,-40.979 -30.196,79.347 53.526,-24.52 6.574,14.48 5.495,12.078 -53.639,24.478 79.262,30.4 -89.825,41.89 -63.662,-23.748 c 0,0 -51.006,82.532 -119.283,113.706 -68.276,31.18 -280.16,127.493 -280.16,127.493 0,0 -63.19,32.372 -97.953,-43.759" />
			<path
   inkscape:connector-curvature="0"
   id="path6"
   d="m 11.827,383.862 24.167,-11.035 c 9.393,20.562 22.699,35.201 38.235,40.597 21.331,7.405 41.804,-2.573 42.003,-2.676 l 0.549,-0.261 L 397.14,282.47 c 63.7,-29.087 113.521,-108.556 114.015,-109.358 l 5.308,-10.208 68.382,24.752 55.072,-25.251 -79.882,-29.82 69.923,-31.894 -0.821,-2.176 -69.719,32.061 29.797,-79.875 -55.314,25.057 -25.104,70.144 -11.011,-2.168 c -0.925,-0.15 -93.939,-15.222 -157.643,13.866 l -280.591,128.112 0.273,1.182 c -0.144,0.065 -21.188,9.493 -29.451,30.843 -5.947,15.36 -3.769,34.526 5.621,55.089 L 11.828,383.861 C -1.214,355.302 -3.228,329.759 5.589,307.378 17.628,276.801 45.776,263.6 49.168,262.051 L 329.496,134.014 C 387.63,107.471 463.971,113.129 491.528,116.232 L 513.477,57.321 637.066,0.715 606.971,80.09 642.08,64.017 l 23.153,50.745 -35.167,16.045 79.448,29.912 -124,57.085 -58.873,-21.962 C 511.121,218.2 465.529,279.424 407.394,305.969 L 127.332,433.617 c -3.136,2.89 -31.52,14.832 -62.289,4.141 -22.655,-7.862 -40.175,-25.336 -53.216,-53.896 z" />
			<path
   style="fill:none;stroke:#ffee00;stroke-width:4;stroke-miterlimit:10"
   inkscape:connector-curvature="0"
   id="path8"
   d="m 24.094,378.748 c -34.763,-76.131 30.871,-103.641 30.871,-103.641 0,0 212.471,-96.694 280.747,-127.87 68.274,-31.176 165.499,-15.129 165.499,-15.129 l 23.749,-63.662 89.035,-40.979 -30.196,79.347 53.526,-24.52 6.574,14.48 5.495,12.078 -53.639,24.478 79.262,30.4 -89.825,41.89 -63.662,-23.748 c 0,0 -51.006,82.532 -119.283,113.706 -68.276,31.18 -280.16,127.493 -280.16,127.493 0,0 -63.19,32.372 -97.953,-43.759 l 0.096,-0.251 c -34.764,-76.136 31.01,-103.342 31.01,-103.342 0,0 212.249,-96.78 280.528,-127.954 68.277,-31.179 165.277,-15.216 165.277,-15.216 l 23.749,-63.662 89.257,-40.896 -30.086,79.386 53.969,-24.677 6.317,14.447 5.996,13.146 -54.016,24.666 79.567,28.803 -89.47,40.55 -63.687,-23.877 c 0,0 -51.427,83.553 -119.699,114.731 -68.279,31.174 -280.372,127.997 -280.372,127.997 0,0 -63.364,32.48 -98.125,-43.651 z"
   stroke-miterlimit="10" />
		</g>
		<g
   id="g36">
			<g
   id="g30">
				<path
   inkscape:connector-curvature="0"
   id="path12"
   d="m 128.484,293.006 14.436,-6.591 c 4.559,-2.082 8.175,-3.304 10.849,-3.667 2.672,-0.362 5.225,0.208 7.656,1.713 2.431,1.505 4.745,4.661 6.94,9.469 1.484,3.252 2.01,5.751 1.576,7.5 -0.435,1.747 -1.995,3.65 -4.684,5.707 3.69,-0.771 6.532,-0.552 8.525,0.658 1.992,1.21 3.815,3.626 5.469,7.249 l 2.355,5.156 c 1.717,3.762 2.559,6.743 2.527,8.946 -0.032,2.204 -0.836,4.066 -2.411,5.589 -1.575,1.523 -5.273,3.613 -11.093,6.271 l -16.738,7.644 z m 18.817,2.913 5.65,12.374 c 0.608,-0.306 1.084,-0.537 1.428,-0.694 1.42,-0.648 2.166,-1.41 2.236,-2.288 0.07,-0.877 -0.647,-2.965 -2.155,-6.265 -0.794,-1.74 -1.512,-2.888 -2.152,-3.44 -0.641,-0.553 -1.26,-0.802 -1.859,-0.75 -0.598,0.052 -1.648,0.406 -3.148,1.063 z m 9.605,21.034 7.11,15.57 c 2.008,-1 3.161,-1.914 3.461,-2.744 0.299,-0.828 -0.063,-2.366 -1.089,-4.612 l -2.37,-5.189 c -1.088,-2.383 -2,-3.712 -2.733,-3.984 -0.734,-0.275 -2.194,0.045 -4.379,0.959 z" />
				<path
   inkscape:connector-curvature="0"
   id="path14"
   d="m 210.209,299.709 c 2.128,4.66 3.523,8.008 4.189,10.046 0.665,2.037 0.787,4.123 0.364,6.254 -0.423,2.132 -1.422,4.076 -2.996,5.833 -1.574,1.758 -3.67,3.233 -6.286,4.428 -2.482,1.134 -4.897,1.746 -7.243,1.837 -2.346,0.092 -4.493,-0.401 -6.436,-1.475 -1.944,-1.073 -3.467,-2.513 -4.568,-4.318 -1.101,-1.804 -2.741,-5.093 -4.921,-9.866 l -3.623,-7.934 c -2.127,-4.659 -3.524,-8.008 -4.189,-10.046 -0.666,-2.039 -0.787,-4.123 -0.364,-6.254 0.422,-2.132 1.421,-4.076 2.996,-5.833 1.573,-1.757 3.669,-3.233 6.285,-4.428 2.482,-1.134 4.897,-1.745 7.243,-1.836 2.348,-0.091 4.493,0.4 6.437,1.474 1.944,1.074 3.466,2.513 4.567,4.317 1.102,1.805 2.742,5.095 4.922,9.868 z m -19.016,-9.73 c -0.984,-2.157 -1.734,-3.483 -2.247,-3.975 -0.514,-0.493 -1.143,-0.569 -1.888,-0.229 -0.63,0.288 -1.001,0.752 -1.113,1.391 -0.112,0.64 0.377,2.153 1.467,4.54 l 9.887,21.653 c 1.229,2.693 2.098,4.304 2.605,4.834 0.507,0.529 1.162,0.61 1.964,0.244 0.82,-0.375 1.181,-0.977 1.078,-1.807 -0.102,-0.831 -0.776,-2.61 -2.023,-5.342 z" />
				<path
   inkscape:connector-curvature="0"
   id="path16"
   d="m 238.563,253.949 21.174,46.37 -10.54,4.813 -14.31,-31.298 10.1,33.221 -7.476,3.413 -18.393,-28.568 13.954,30.595 -10.54,4.813 -21.174,-46.371 15.603,-7.125 c 1.735,2.577 3.713,5.645 5.932,9.205 l 7.099,11.013 -7.116,-22.918 z" />
				<path
   inkscape:connector-curvature="0"
   id="path18"
   d="m 242.399,252.197 12.029,-5.493 c 3.8,-1.735 6.813,-2.753 9.041,-3.056 2.227,-0.302 4.354,0.173 6.38,1.428 2.026,1.254 3.954,3.884 5.784,7.892 1.237,2.71 1.675,4.793 1.313,6.249 -0.362,1.457 -1.663,3.042 -3.903,4.757 3.076,-0.642 5.443,-0.46 7.104,0.548 1.66,1.008 3.18,3.021 4.558,6.04 l 1.963,4.299 c 1.431,3.134 2.133,5.619 2.106,7.454 -0.027,1.837 -0.697,3.389 -2.009,4.658 -1.313,1.27 -4.394,3.011 -9.244,5.226 l -13.949,6.369 z m 15.681,2.428 4.709,10.311 c 0.506,-0.254 0.903,-0.447 1.189,-0.578 1.184,-0.54 1.805,-1.177 1.863,-1.907 0.059,-0.73 -0.54,-2.471 -1.795,-5.22 -0.663,-1.45 -1.261,-2.407 -1.794,-2.868 -0.533,-0.46 -1.05,-0.668 -1.549,-0.625 -0.498,0.044 -1.373,0.34 -2.623,0.887 z m 8.004,17.529 5.925,12.974 c 1.673,-0.833 2.635,-1.595 2.884,-2.286 0.25,-0.691 -0.052,-1.972 -0.907,-3.843 l -1.975,-4.325 c -0.906,-1.985 -1.666,-3.092 -2.278,-3.321 -0.611,-0.228 -1.829,0.038 -3.649,0.801 z" />
				<path
   inkscape:connector-curvature="0"
   id="path20"
   d="m 308.554,231.134 -13.438,6.136 -1.883,-4.125 c -0.879,-1.924 -1.61,-3.071 -2.195,-3.441 -0.584,-0.37 -1.277,-0.371 -2.079,-0.005 -0.871,0.397 -1.367,1.054 -1.489,1.968 -0.123,0.916 0.146,2.094 0.806,3.54 0.848,1.857 1.738,3.141 2.669,3.852 0.909,0.721 2.79,1.233 5.642,1.534 8.188,0.882 13.677,2.167 16.468,3.855 2.792,1.688 5.434,5.258 7.923,10.711 1.811,3.964 2.681,7.098 2.61,9.399 -0.069,2.304 -1.144,4.698 -3.221,7.183 -2.077,2.485 -4.88,4.534 -8.409,6.145 -3.872,1.769 -7.512,2.544 -10.92,2.328 -3.408,-0.215 -6.054,-1.265 -7.937,-3.146 -1.883,-1.881 -3.777,-4.907 -5.681,-9.078 l -1.664,-3.643 13.438,-6.136 3.092,6.771 c 0.952,2.085 1.753,3.339 2.403,3.762 0.65,0.425 1.456,0.415 2.418,-0.025 0.962,-0.439 1.506,-1.143 1.63,-2.113 0.124,-0.971 -0.153,-2.201 -0.833,-3.691 -1.496,-3.276 -2.921,-5.215 -4.275,-5.815 -1.377,-0.59 -4.403,-1.242 -9.078,-1.96 -4.686,-0.741 -7.858,-1.382 -9.519,-1.926 -1.66,-0.544 -3.309,-1.59 -4.944,-3.142 -1.636,-1.552 -3.129,-3.806 -4.479,-6.761 -1.946,-4.262 -2.825,-7.626 -2.636,-10.094 0.188,-2.468 1.244,-4.812 3.165,-7.032 1.921,-2.22 4.6,-4.115 8.037,-5.685 3.758,-1.716 7.237,-2.571 10.438,-2.565 3.202,0.007 5.653,0.735 7.354,2.188 1.702,1.453 3.563,4.389 5.582,8.812 z" />
				<path
   inkscape:connector-curvature="0"
   id="path22"
   d="m 358.613,255.17 2.563,5.613 -9.108,4.159 c -2.195,1.003 -3.82,1.54 -4.871,1.611 -1.053,0.071 -1.889,-0.155 -2.508,-0.677 -0.619,-0.522 -1.324,-1.649 -2.115,-3.382 -2.766,1.171 -5.441,1.527 -8.027,1.07 -2.586,-0.457 -4.671,-1.588 -6.256,-3.392 -1.585,-1.803 -3.327,-4.786 -5.229,-8.948 l -6.552,-14.35 c -1.438,-3.15 -2.349,-5.636 -2.731,-7.458 -0.382,-1.821 -0.324,-3.729 0.174,-5.722 0.498,-1.992 1.494,-3.78 2.986,-5.361 1.493,-1.582 3.356,-2.883 5.591,-3.903 2.692,-1.229 5.303,-1.867 7.831,-1.914 2.528,-0.048 4.635,0.397 6.32,1.334 1.686,0.938 3.033,2.094 4.041,3.467 1.008,1.374 2.196,3.56 3.564,6.556 l 6.877,15.061 c 1.883,4.123 2.959,7.011 3.229,8.665 0.27,1.652 0.036,3.172 -0.704,4.56 -0.74,1.388 -1.95,2.741 -3.631,4.063 0.531,1.011 1.044,1.566 1.539,1.665 0.496,0.1 1.44,-0.17 2.834,-0.807 z m -27.82,-28.937 c -0.985,-2.157 -1.735,-3.482 -2.248,-3.974 -0.514,-0.494 -1.143,-0.57 -1.887,-0.23 -0.63,0.288 -1.001,0.752 -1.113,1.391 -0.112,0.64 0.377,2.152 1.467,4.539 l 9.888,21.652 c 1.229,2.693 2.098,4.305 2.604,4.834 0.507,0.53 1.162,0.611 1.964,0.245 0.821,-0.375 1.181,-0.977 1.079,-1.807 -0.103,-0.83 -0.777,-2.61 -2.024,-5.342 z" />
				<path
   inkscape:connector-curvature="0"
   id="path24"
   d="m 368.354,194.683 14.15,30.99 c 1.604,3.513 2.617,6.034 3.037,7.562 0.42,1.526 0.41,3.297 -0.032,5.31 -0.442,2.014 -1.408,3.827 -2.897,5.441 -1.489,1.616 -3.485,2.993 -5.986,4.136 -2.769,1.264 -5.422,1.922 -7.959,1.974 -2.538,0.051 -4.668,-0.417 -6.39,-1.41 -1.721,-0.989 -3.05,-2.257 -3.987,-3.803 -0.937,-1.546 -2.599,-4.934 -4.988,-10.166 l -12.528,-27.438 12.058,-5.506 15.877,34.771 c 0.924,2.024 1.625,3.269 2.102,3.73 0.477,0.463 1.049,0.542 1.717,0.237 0.764,-0.349 1.114,-0.883 1.05,-1.604 -0.064,-0.72 -0.623,-2.236 -1.679,-4.547 l -15.602,-34.169 z" />
				<path
   inkscape:connector-curvature="0"
   id="path26"
   d="m 393.526,183.188 28.069,43.222 -12.322,5.627 -4.453,-8.039 -4.313,1.969 3.081,8.665 -12.466,5.692 -15.023,-49.179 z m 7.224,32.734 c -3.008,-4.973 -6.585,-11.185 -10.729,-18.637 2.826,9.441 5.019,16.285 6.579,20.532 z" />
				<path
   inkscape:connector-curvature="0"
   id="path28"
   d="m 402.705,178.998 9.021,-4.12 c 5.823,-2.659 9.884,-4.19 12.181,-4.592 2.297,-0.403 4.259,-0.237 5.886,0.496 1.627,0.734 2.916,1.789 3.868,3.166 0.952,1.377 2.431,4.261 4.437,8.653 l 7.415,16.24 c 1.901,4.162 2.976,7.034 3.226,8.616 0.248,1.583 0.068,2.993 -0.545,4.229 -0.611,1.238 -1.562,2.341 -2.85,3.31 -1.288,0.969 -3.374,2.111 -6.257,3.428 l -15.208,6.944 z m 15.68,2.428 13.929,30.502 c 1.737,-0.793 2.647,-1.629 2.729,-2.51 0.084,-0.88 -0.582,-2.867 -1.994,-5.96 l -8.227,-18.016 c -0.959,-2.1 -1.64,-3.415 -2.044,-3.947 -0.403,-0.531 -0.908,-0.826 -1.512,-0.885 -0.603,-0.057 -1.564,0.215 -2.881,0.816 z" />
			</g>
			<g
   id="g34">
				<path
   style="clip-rule:evenodd;fill-rule:evenodd"
   inkscape:connector-curvature="0"
   id="path32"
   d="m 471.937,201.571 c -0.843,0.406 -1.988,1.482 -3.174,1.629 -0.339,0.044 -0.072,0.145 -0.483,0.131 -0.023,-0.002 -0.423,-0.042 -0.365,-0.199 0.097,-0.257 1.416,-0.35 1.285,-0.771 -0.044,-0.151 0.032,-0.091 -0.443,0.023 -0.729,0.173 -0.535,0.159 -1.311,0.325 -0.285,0.061 -0.583,0.033 -0.854,0.119 -0.335,0.102 -0.644,0.408 -0.982,0.445 -0.174,0.021 -0.382,-0.131 -0.622,-0.167 -0.18,-0.028 -0.453,-0.099 -0.776,-0.101 -0.478,-0.01 0.085,-0.401 0.246,-0.663 0.054,-0.088 0.069,-0.234 0.123,-0.326 0.204,-0.364 0.476,-0.997 0.685,-1.499 0.13,-0.322 0.409,-1.098 0.483,-1.131 0.207,-0.101 0.458,0.171 0.734,0.21 0.303,0.044 0.568,0.021 0.857,-0.117 0.474,-0.226 0.578,-0.521 0.738,-0.978 0.142,-0.402 0.263,-0.866 0.195,-1.362 -0.034,-0.257 -0.14,-0.575 -0.26,-0.974 -0.069,-0.226 -0.221,-0.5 -0.235,-0.714 -0.028,-0.395 0.307,-0.809 0.304,-1.323 0.003,-0.229 -0.129,-0.495 -0.157,-0.748 -0.114,-1.018 0.167,-1.917 0.366,-2.99 0.012,-0.073 -0.047,-0.177 -0.029,-0.259 0.012,-0.047 0.109,-0.102 0.116,-0.145 0.025,-0.145 -0.038,-0.328 -0.021,-0.446 0.012,-0.07 0.071,-0.131 0.081,-0.221 0.064,-0.511 0.481,-0.983 0.731,-1.788 0.042,-0.139 0.015,-0.318 0.053,-0.481 0.022,-0.084 0.068,-0.124 0.084,-0.219 0.012,-0.095 0.062,-0.244 0.089,-0.407 0.011,-0.086 0.117,-0.479 0.2,-0.548 0.28,-0.221 0.917,-0.092 1.416,-0.098 1.237,-0.014 2.274,-0.222 3.45,-0.026 0.202,0.032 0.407,0.087 0.589,0.096 0.214,0.005 0.552,-0.1 0.856,-0.118 0.045,-0.007 0.188,0.085 0.22,0.079 0.219,-0.029 0.743,-0.227 0.707,-0.047 -0.022,0.105 -0.219,0.448 -0.282,0.583 -0.112,0.256 -0.251,0.57 -0.36,0.804 -0.061,0.133 -0.106,0.321 -0.167,0.439 -0.037,0.08 -0.157,0.098 -0.19,0.178 -0.048,0.118 -0.077,0.197 -0.196,0.364 -0.053,0.073 -0.344,0.376 -0.393,0.542 -0.06,0.221 0.134,0.543 0.08,0.966 -0.031,0.229 -0.336,0.856 -0.482,1.133 -0.14,0.25 -0.386,0.51 -0.553,0.794 -0.014,0.031 0.016,0.165 -0.003,0.186 -0.195,0.223 -0.247,0.491 -0.406,0.913 -0.011,0.036 -0.135,0.031 -0.149,0.068 -0.024,0.064 0.032,0.24 -0.013,0.372 -0.068,0.194 -0.229,0.358 -0.281,0.583 -0.016,0.072 0.051,0.183 0.03,0.262 -0.03,0.115 -0.178,0.257 -0.199,0.362 -0.02,0.093 0.049,0.174 0.028,0.261 -0.029,0.126 -0.153,0.458 -0.061,0.666 0.195,0.443 0.725,0.521 1.017,0.63 0.092,0.034 0.316,0.146 0.547,0.204 0.428,0.106 0.587,0.185 0.936,-0.151 0.122,-0.121 -0.044,-0.209 0.267,-0.215 0.295,-0.004 0.878,0.644 1.521,0.944 0.297,0.14 0.686,0.284 0.878,0.33 0.105,0.021 0.287,-0.043 0.446,-0.023 0.206,0.026 0.498,0.124 0.776,0.102 0.374,-0.028 0.803,-0.129 1.309,-0.324 0.24,-0.092 0.792,-0.267 0.902,-0.414 0.171,-0.221 0.066,-0.834 -0.18,-1.192 -0.057,-0.085 -0.186,-0.113 -0.254,-0.157 -0.057,-0.041 -0.106,-0.147 -0.178,-0.192 -0.076,-0.044 -0.222,-0.005 -0.293,-0.048 -0.087,-0.049 -0.099,-0.153 -0.182,-0.192 -0.67,-0.315 -1.639,-0.583 -1.899,-0.769 -0.373,-0.274 -0.821,-0.656 -0.996,-1.186 -0.123,-0.37 0.136,-1.565 0.438,-1.839 0.154,-0.142 0.618,-0.099 1.01,-0.371 0.303,-0.211 0.435,-0.653 0.632,-1.017 0.039,-0.073 0.145,-0.099 0.193,-0.178 0.115,-0.206 0.186,-0.379 0.353,-0.62 0.086,-0.116 0.152,-0.226 0.271,-0.397 0.451,-0.624 1.052,-1.373 1.706,-2.053 0.337,-0.348 0.703,-0.676 1.043,-1.112 0.206,-0.269 0.417,-0.589 0.472,-0.762 0.147,-0.478 -0.032,-1.16 0.024,-1.743 0.011,-0.114 -0.027,-0.091 0.007,-0.185 0.033,-0.095 0.011,-0.241 0.053,-0.48 0.109,-0.605 0.705,-0.148 1.354,-0.618 0.053,-0.035 0.128,-0.214 0.16,-0.255 0.162,-0.205 0.287,-0.383 0.208,-0.733 -0.118,-0.57 -0.702,-0.597 -1.15,-0.93 -0.096,-0.072 -0.324,-0.135 -0.249,-0.343 0.107,-0.284 0.326,-0.105 0.522,-0.055 0.145,0.035 0.33,0.251 0.549,0.204 0.537,-0.117 0.352,-0.562 0.724,-0.604 0.034,-0.002 0.345,0.171 0.586,0.279 0.478,0.218 1.079,0.491 1.604,0.723 0.158,0.072 0.359,0.12 0.552,0.207 0.368,0.17 0.604,0.351 1.054,0.52 0.504,0.186 0.896,0.36 1.083,-0.224 -0.044,-0.097 -0.089,-0.199 -0.136,-0.299 -0.728,-0.306 -1.444,-0.609 -2.189,-1.003 -0.396,-0.211 -0.924,-0.414 -1.496,-0.686 -0.188,-0.088 -0.378,-0.232 -0.618,-0.355 -0.238,-0.121 -0.515,-0.159 -0.584,-0.279 -0.184,-0.33 0.024,-0.613 0.067,-0.851 0.063,-0.342 0.236,-0.684 0.067,-0.85 -0.133,-0.132 -0.359,-0.102 -0.555,-0.022 -0.124,0.055 -0.384,0.422 -0.46,0.393 -0.141,-0.052 0.034,-0.254 -0.023,-0.445 -0.08,-0.29 -0.225,-0.345 -0.279,-0.419 -0.441,-0.587 -1.238,-0.711 -1.928,-1.029 -0.068,-0.03 -0.082,-0.092 -0.143,-0.118 -0.193,-0.076 -0.568,-0.313 -0.841,-0.437 -0.157,-0.072 -0.524,-0.215 -0.766,-0.286 -0.026,-0.009 -0.211,-0.086 -0.221,-0.082 -0.554,0.129 -0.468,0.72 -0.732,0.79 -0.097,0.023 -1.078,-0.559 -1.313,-0.678 -0.303,-0.153 -0.6,-0.314 -0.944,-0.477 0.028,0.013 -0.322,-0.104 -0.333,-0.125 -0.165,-0.308 0.136,-0.677 0.184,-0.995 0.034,-0.192 0.114,-0.57 -0.189,-0.822 -0.035,-0.024 -0.165,0.016 -0.189,-0.006 -0.029,-0.029 -0.029,-0.135 -0.068,-0.151 -0.129,-0.064 -0.492,0.027 -0.589,-0.096 -0.122,-0.156 0.103,-0.438 -0.159,-0.747 -0.196,-0.232 -0.686,-0.359 -1.058,-0.519 -0.375,-0.166 -0.798,-0.3 -1.097,-0.408 -0.411,-0.157 -1.108,-0.415 -1.606,-0.727 -0.184,-0.115 -0.504,-0.312 -0.508,-0.313 -0.142,-0.304 0.136,-0.648 0.258,-1.028 0.101,-0.309 0.329,-0.787 0.295,-0.953 -0.075,-0.346 -0.703,-0.468 -0.564,-0.837 0.126,-0.331 1.147,-0.411 1.436,-0.653 0.319,-0.276 0.354,-0.965 0.344,-1.436 -0.004,-0.211 -0.016,-0.382 -0.014,-0.63 -10e-4,-0.03 -0.043,-0.22 -0.03,-0.26 0.138,-0.385 0.479,-0.257 0.508,-0.688 0.025,-0.365 -0.354,-0.723 -0.404,-1.088 -0.061,-0.419 0.197,-0.977 0.423,-1.47 0.103,-0.23 0.221,-0.441 0.315,-0.692 0.155,-0.377 0.254,-0.694 0.268,-1.214 0.006,-0.175 0.035,-0.508 0.021,-0.554 -0.096,-0.321 -1.023,-1.074 -0.578,-1.467 0.066,-0.061 0.307,-0.001 0.452,-0.207 0.166,-0.237 0.257,-0.862 -0.146,-1.117 -0.132,-0.084 -0.154,-0.005 -0.294,-0.046 -0.235,-0.07 -0.836,-0.184 -1.044,0.11 -0.129,0.181 0.106,0.195 -0.121,0.329 -0.215,0.122 -1.565,-0.085 -1.399,0.729 0.132,0.65 0.419,-0.114 0.659,0.246 0.041,0.063 0.104,0.353 0.171,0.378 0.199,0.071 0.533,-0.201 0.694,0.321 0.079,0.267 -0.192,0.078 -0.554,-0.021 -0.688,-0.188 -1.04,-0.422 -1.799,-0.544 -0.136,-0.023 -0.294,-0.12 -0.33,-0.124 -0.913,-0.096 -2.667,0.324 -3.594,0.913 -0.681,0.432 -1.293,1.336 -1.627,2.017 -0.166,0.336 -0.234,0.667 -0.402,0.913 -0.039,0.054 0.064,0.114 -0.008,0.185 -0.079,0.084 -0.431,0.163 -0.492,0.317 -0.009,0.028 -0.008,0.67 0.008,0.814 0.068,0.624 0.154,0.9 0.619,1.358 0.283,0.278 0.602,0.552 0.976,0.739 0.097,0.049 0.182,-0.03 0.294,0.047 0.147,0.099 0.094,0.09 0.105,0.228 0.051,0.707 -0.576,-0.141 -1.121,0.143 -0.31,0.165 -0.253,0.311 -0.313,0.509 -0.038,0.122 0.027,0.407 -0.129,0.513 -0.11,0.079 -0.636,-0.098 -0.776,-0.101 -0.903,-0.014 -1.996,0.508 -3.008,1.191 -0.311,0.21 -0.514,0.517 -0.631,0.015 -0.096,-0.419 0.128,-0.006 0.025,-0.739 -0.031,-0.224 -0.129,-0.39 -0.164,-0.564 -0.039,-0.198 -0.028,-0.416 -0.057,-0.519 -0.294,-1.102 -1.323,-3.177 -1.617,-3.544 -0.17,-0.211 -0.356,-0.318 -0.577,-0.465 -0.061,-0.04 -0.103,-0.146 -0.18,-0.192 -0.268,-0.162 -0.562,-0.188 -0.876,-0.327 -0.273,-0.119 -0.582,-0.286 -0.836,-0.438 -0.31,-0.182 -0.538,-0.43 -0.8,-0.546 -0.69,-0.312 -1.868,-0.155 -2.449,-0.979 -0.029,-0.043 -0.312,-0.662 -0.529,-0.758 -0.087,-0.04 -0.331,-0.029 -0.479,-0.055 -0.039,-0.006 -0.112,0.084 -0.152,0.069 0.03,0.011 -0.125,-1.047 -0.14,-1.302 -0.031,-0.667 0.892,-1.286 0.849,-1.936 -0.024,-0.325 -0.199,-0.531 -0.447,-0.981 -0.447,-0.8 -1.219,-2.236 -1.756,-2.84 -0.27,-0.309 -0.487,-0.494 -0.905,-0.59 -0.454,-0.104 -0.124,-0.126 -0.384,-0.644 -0.259,-0.512 -0.571,-0.519 -1.283,-0.416 -0.642,0.09 -1.306,0.213 -1.33,0.878 -0.007,0.174 0.048,0.075 0.104,0.226 0.139,0.364 -0.073,0.229 -0.532,0.429 -0.632,0.272 -1.172,0.701 -1.486,1.132 -0.537,0.732 -0.51,1.722 -0.503,2.691 0.004,0.448 0.017,0.943 0.022,1.445 0,0.223 -0.097,1.155 0.098,1.415 0.176,0.229 0.485,0.208 0.735,0.209 0.267,0 0.702,-0.209 0.856,-0.118 0.125,0.075 0.585,1.081 0.548,1.205 -0.082,0.287 -0.051,0.011 -0.379,0.172 -0.271,0.138 -0.432,0.401 -0.748,0.346 -0.091,-0.019 -0.169,-0.128 -0.258,-0.159 -0.498,-0.181 -1.138,-0.559 -1.746,-0.841 -0.111,-0.051 -0.215,-0.058 -0.331,-0.122 -0.176,-0.095 -0.351,-0.158 -0.582,-0.28 -0.395,-0.21 -1.046,-0.419 -1.462,-0.606 -0.098,-0.046 -0.174,-0.188 -0.29,-0.235 -0.084,-0.034 -0.207,-0.01 -0.295,-0.047 -0.121,-0.054 -0.159,-0.169 -0.287,-0.233 -0.081,-0.041 -0.212,-0.011 -0.297,-0.047 -0.823,-0.38 -1.45,-0.715 -2.333,-1.122 -0.437,-0.201 -0.956,-0.322 -1.166,-0.562 -0.291,-0.329 -0.319,-0.757 -0.556,-1.02 -0.213,-0.235 -0.824,-0.615 -1.245,-0.526 -0.228,0.05 -0.617,0.387 -0.909,0.598 -0.74,0.542 -1.089,0.883 -1.321,1.696 -0.037,0.128 0.008,0.352 -0.017,0.557 -0.028,0.19 -0.137,0.347 -0.131,0.516 0.002,0.175 0.056,0.402 0.091,0.594 0.121,0.71 0.474,0.986 1.072,1.15 0.104,0.028 0.277,0.125 0.326,0.124 0.334,-0.013 0.656,-0.412 1.168,-0.442 0.087,-0.005 0.602,0.203 0.768,0.289 0.066,0.034 0.105,0.157 0.179,0.191 0.32,0.153 0.691,0.232 0.987,0.368 0.317,0.147 0.644,0.336 0.947,0.479 0.347,0.162 0.646,0.338 0.948,0.478 0.284,0.13 0.626,0.198 0.986,0.367 0.07,0.034 0.079,0.091 0.146,0.118 0.483,0.193 1.191,0.583 1.749,0.839 0.172,0.081 0.871,0.228 0.948,0.479 10e-4,0.003 -0.103,0.164 -0.2,0.366 -0.115,0.246 -0.285,0.847 -0.368,0.985 -0.103,0.168 -0.341,0.381 -0.54,0.614 -0.257,0.293 -0.493,0.529 -0.701,0.862 -0.164,0.273 -0.274,0.654 -0.441,1.022 -0.138,0.306 -0.309,0.595 -0.481,0.948 -0.272,0.586 -0.696,1.247 -1.029,1.928 -0.113,0.231 -0.158,0.46 -0.247,0.659 -0.058,0.13 -0.203,0.193 -0.231,0.288 -0.021,0.075 -0.01,0.249 -0.012,0.37 -0.009,0.352 0.209,0.729 0.257,1.16 0.047,0.462 -0.14,1.069 -0.062,1.667 0.124,0.966 1.042,2.86 1.849,3.252 0.544,0.261 1.463,0.161 2.478,0.234 0.311,0.025 0.72,0.118 1.257,0.157 0.29,0.021 0.62,-0.016 0.923,0.033 0.08,0.014 0.143,-0.096 0.188,0.007 0.021,0.061 0.093,0.617 -0.104,0.776 -0.117,0.091 -0.502,0.068 -0.669,0.125 -0.326,0.101 -1.252,0.317 -1.543,0.61 -0.772,0.773 0.284,2.227 0.91,3.594 0.584,1.277 1.202,2.63 1.856,4.069 0.332,0.727 0.551,1.584 0.862,1.883 0.334,0.328 0.672,0.196 1.215,0.266 0.38,0.05 0.952,0.238 1.433,0.347 0.388,0.089 0.78,0.05 1.099,0.41 0.282,0.318 0.393,0.917 0.614,1.541 0.343,0.973 0.767,2.261 1.36,3.387 0.301,0.561 0.743,0.999 0.915,1.403 0.188,0.433 0.196,1.102 0.277,1.606 0.073,0.461 0.174,1.009 0.276,1.603 0.067,0.367 0.081,0.748 0.188,1.008 0.095,0.234 0.348,0.45 0.531,0.762 0.155,0.267 0.253,0.604 0.414,0.903 0.337,0.643 0.729,1.264 0.899,1.775 0.281,0.846 0.234,1.781 0.565,2.836 0.167,0.531 0.401,1.019 0.503,1.503 0.123,0.561 0.209,1.132 0.066,1.336 -0.156,0.223 -0.658,0.253 -1.021,0.557 -0.384,0.321 -0.423,0.867 -0.748,1.159 -0.27,0.246 -0.914,0.569 -1.513,0.875 -0.439,0.224 -10.979,5.111 -11.318,5.203 -0.593,1.131 -0.934,2.358 -1.335,3.542 4.372,-2.056 18.507,-8.544 23.059,-10.493 1.924,-0.822 4.626,-2.021 6.895,-3.056 0.805,-0.369 0.676,-0.324 2.262,-1.032 1.585,-0.702 -0.339,-1.592 -1.182,-1.186 z M 461.736,192.2 c -0.146,0.777 -0.354,1.589 -0.53,2.428 -0.093,0.446 -0.193,0.954 -0.316,1.509 -0.11,0.539 -0.18,0.146 -0.615,-0.356 -0.455,-0.531 -0.549,-0.472 -0.516,-1.13 0.022,-0.459 0.073,-0.825 0.121,-1.33 0.024,-0.22 0.063,-0.4 0.102,-0.776 0.035,-0.364 0.087,-0.646 0.151,-1.067 0.036,-0.271 -0.019,-0.417 0.053,-0.484 0.181,-0.17 0.321,-0.001 0.808,0.179 0.686,0.255 0.911,0.145 0.742,1.027 z" />
			</g>
		</g>
	</g><g
   id="g44"
   transform="translate(-0.21908685,-0.715)">
		<path
   style="clip-rule:evenodd;fill-rule:evenodd"
   inkscape:connector-curvature="0"
   id="path40"
   d="m 96.532,273.306 c 0.89,-0.418 1.671,-1.343 2.658,-0.565 4.914,3.871 -5.285,9.764 -5.297,11.813 -0.011,1.871 2.624,4.81 3.083,6.042 6.365,17.074 2.686,35.582 -19.199,39.545 -2.544,0.46 -5.502,-0.394 -7.925,0.379 -1.445,0.46 -3.155,3.392 -5.217,2.059 -2.021,-1.311 0.717,-6.346 1.036,-6.954 3.049,-5.786 6.775,-13.566 9.382,-19.186 3.77,-8.122 8.268,-18.523 13.028,-25.386 1.71,-2.463 5.14,-6.186 8.451,-7.747 z" />
		<path
   style="clip-rule:evenodd;fill:#ffffff;fill-rule:evenodd"
   inkscape:connector-curvature="0"
   id="path42"
   d="m 87.636,288.85 c 4.122,-1.706 10.477,14.009 9.884,18.812 -0.268,2.168 -4.063,7.209 -5.325,8.911 -0.692,0.932 -4.887,5.9 -5.848,3.729 -1.354,-3.059 0.634,-18.786 -0.063,-21.139 -0.502,-1.703 0.216,-9.843 1.352,-10.313 z" />
	</g><g
   id="g50"
   transform="translate(-0.21908685,-0.715)">
		<path
   style="clip-rule:evenodd;fill-rule:evenodd"
   inkscape:connector-curvature="0"
   id="path46"
   d="m 31.283,360.823 c 0.016,-0.012 2.21,-0.872 2.362,-0.946 12.298,-5.754 27.553,-6.2 40.713,-7.396 35.57,-3.223 72.775,3.074 106.774,21.023 2.411,1.273 8.498,4.577 8.832,6.041 0.707,3.096 -8.429,5.343 -11.163,6.591 -27.19,12.416 -55.922,25.908 -83.061,38.301 -2.644,1.207 -6.075,2.467 -7.674,1.39 -1.712,-1.155 -11.691,-3.784 -13.345,-5.528 C 60.737,405.562 54.455,402.72 44.574,388.565 43.257,386.676 26.978,364.216 31.283,360.823 Z" />
		<path
   style="clip-rule:evenodd;fill:#ffffff;fill-rule:evenodd;stroke:#000000;stroke-linecap:round"
   inkscape:connector-curvature="0"
   id="path48"
   d="m 36.783,363.299 c -0.021,-0.199 0.019,-0.461 0.232,-0.479 5.867,-0.482 10.481,-2.625 15.227,-3.595 21.488,-4.397 45.236,-5.02 67.396,-1.67 15.609,2.359 33.382,7.049 48.715,13.575 3.374,1.438 8.048,3.543 12.046,5.696 2.615,1.405 3.736,1.905 3.739,2.769 0.011,2.057 -8.563,4.284 -9.909,4.899 -24.882,11.36 -37.499,18.415 -63.771,28.488 -1.547,0.593 -19.636,4.689 -21.14,3.149 -1.37,-1.403 -2.436,-2.296 -2.385,-4.089 0.091,-3.255 0.189,-6.3 0.242,-9.815 0.042,-2.632 4.996,10.684 7.306,8.606 0.499,-0.452 -3.631,-19.466 1.917,-10.578 0.87,1.396 6.876,7.93 7.624,7.34 0.644,-0.507 -0.814,-3.682 -0.998,-5.141 -0.255,-2.048 0.793,-8.027 1.93,-7.599 1.043,0.394 5.607,8.827 6.978,8.384 0.773,-0.254 -0.134,-3.147 -0.063,-4.079 0.006,-0.071 2.338,-9.841 3.51,-9.064 1.143,0.759 4.151,10.451 6.328,9.425 0.402,-0.19 -0.345,-2.804 -0.248,-3.991 0.126,-1.564 1.879,-6.416 3.146,-5.915 0.045,0.018 3.997,6.909 4.875,6.729 1.117,-0.228 -1.322,-8.364 1.178,-8.748 1.017,-0.152 4.738,6.317 6.176,6.136 1.679,-0.211 0.679,-9.309 2.81,-9.119 1.062,0.096 3.537,5.795 4.821,5.636 1.993,-0.247 -1.453,-9.06 3.808,-3.978 0.361,0.348 2.269,2.894 2.667,2.885 1.203,-0.022 0.068,-3.724 1.523,-4.05 1.086,-0.248 1.813,2.33 3.086,2.319 1.565,-0.013 1.131,-4.642 2.267,-4.392 0.594,0.129 0.59,2.334 1.784,2.916 1.039,0.508 0.784,-4.499 2.407,-4.084 0.104,0.024 1.887,2.803 1.967,2.833 2.104,0.752 0.91,-5.189 2.598,-4.171 0.879,0.531 1.019,3.329 1.504,3.791 0.717,0.682 1.853,-2.784 2.088,-2.821 1.368,-0.206 0.92,1.695 1.729,1.823 0.795,0.125 0.483,-1.114 1.44,-1.777 1.225,-0.851 7.144,-0.933 3.153,-4.424 -1.896,-1.658 -1.237,4.321 -3.532,3.104 -1.317,-0.698 -0.688,-3.841 -2.07,-5.025 -1.712,-1.464 -2.001,4.386 -3.25,3.724 -0.78,-0.416 -2.024,-4.45 -2.626,-4.77 -1.247,-0.66 -2.544,6.169 -3.521,6.086 -2.306,-0.206 -3.12,-7.398 -5.251,-8.051 -1.319,-0.405 -0.463,9.839 -1.5,10.012 -0.574,0.097 -3.198,-2.992 -3.792,-3.865 -2.421,-3.562 -4.655,-11.976 -6.507,-7.851 -0.503,1.123 -1.108,3.841 -1.423,6.246 -0.235,1.802 0.102,6.452 -0.767,6.694 -1.082,0.304 -4.115,-4.069 -6.084,-6.922 -1,-1.447 -5.017,-8.433 -5.72,-8.583 -1.66,-0.353 -1.827,5.897 -2.021,8.384 -0.104,1.35 -0.054,9.181 -0.709,9.281 -1.171,0.177 -6.29,-7.264 -7.728,-9.531 -1.663,-2.622 -4.92,-9.693 -5.909,-9.99 -1.771,-0.527 -1.938,9.013 -1.964,10.974 -0.024,1.858 1.028,12.055 0.513,12.451 -0.827,0.641 -6.444,-5.758 -8.235,-8.179 -1.755,-2.376 -4.55,-7.228 -5.486,-9.063 -0.967,-1.894 -2.595,-6.313 -2.961,-6.485 -0.757,-0.354 -1.08,3.93 -1.1,4.981 -0.063,3.253 0.46,5.767 0.873,9.303 0.274,2.346 1.725,9.104 1.386,9.44 -1.29,1.29 -8.912,-10.392 -10.676,-13.035 -0.106,-0.158 -3.35,-5.117 -3.468,-5.133 -1.048,-0.137 1.185,8.113 -0.716,7.789 -0.662,-0.11 -2.569,-3.751 -3.188,-4.513 -1.382,-1.712 -8.144,-9.159 -9.305,-8.067 -0.813,0.765 1.377,8.028 1.951,10.678 0.982,4.542 -0.111,2.847 -2.516,0.404 -1.572,-1.595 -3.636,-3.557 -6.688,-6.275 -0.872,-0.774 -6.187,-5.41 -6.685,-4.783 -0.522,0.655 2.788,7.541 1.85,8.482 -0.507,0.512 -3.942,-2.872 -5.047,-3.664 -5.411,-3.885 -9.68,-5.845 -15.176,-7.623 -0.102,-0.031 -0.628,-0.164 -0.655,-0.445 z" />
	</g>
</svg>