<?xml version="1.0" encoding="UTF-8" standalone="no"?>
<svg
   xmlns:dc="http://purl.org/dc/elements/1.1/"
   xmlns:cc="http://creativecommons.org/ns#"
   xmlns:rdf="http://www.w3.org/1999/02/22-rdf-syntax-ns#"
   xmlns:svg="http://www.w3.org/2000/svg"
   xmlns="http://www.w3.org/2000/svg"
   id="svg3817"
   version="1.1"
   viewBox="0 0 499.1384 339.34426"
   height="1.1311442in"
   width="1.663798in">
  <metadata
     id="metadata3823">
    <rdf:RDF>
      <cc:Work
         rdf:about="">
        <dc:format>image/svg+xml</dc:format>
        <dc:type
           rdf:resource="http://purl.org/dc/dcmitype/StillImage" />
        <dc:title></dc:title>
      </cc:Work>
    </rdf:RDF>
  </metadata>
  <defs
     id="defs3821" />
  <path
     id="path3828"
     d="m 12.321783,4.1992314 c -6.8500001,0 -12.32303505,5.4852421 -12.32303502,12.3352416 V 320.47217 c 0,6.84999 5.47303492,12.31691 12.32303502,12.31691 h 63.836863 c 20.519999,0 39.223194,-7.74562 53.363194,-21.4356 15.05,-15.07 23.26057,-35.14361 23.26057,-57.5136 V 83.16065 c 0,-22.359998 -8.21057,-42.447496 -23.26057,-57.507497 -14.14,-13.68 -32.843195,-21.4539216 -53.363194,-21.4539216 z M 65.208904,58.062918 h 10.949742 c 6.839999,0 11.4014,4.557992 11.4014,14.147993 V 264.80182 c 0,9.58 -3.651401,14.14189 -11.4014,14.14189 H 65.208904 Z"
     style="fill:#ffc40b;stroke-width:1;fill-opacity:1" />
  <path
     id="Path"
     d="m 248.72997,0 c -23.72,0 -38.76825,5.4801121 -51.53825,17.810112 -15.96,15.53 -23.26056,32.894206 -23.26056,53.894207 v 41.107301 c 0,20.09 5.92735,31.96945 18.23735,44.29945 l 47.44277,42.93226 c 15.5,15.07 19.61066,16.43701 19.61066,30.59701 v 40.19177 c 0,9.14 -8.66974,10.04642 -10.94974,10.04642 -2.73,0 -11.4014,-0.90642 -11.4014,-10.04642 v -43.39002 c 0,-6.85 -5.47693,-12.32914 -12.31693,-12.32914 h -38.31189 c -6.84,0 -12.31082,5.47914 -12.31082,12.32914 v 40.19177 c 0,21.01 7.30056,37.90644 23.26056,53.43643 12.77,12.79001 27.82048,18.274 51.08048,18.274 24.17,0 41.04709,-5.94399 53.35709,-18.274 15.96,-15.52999 23.26059,-32.42643 23.26059,-53.43643 v -38.36071 c 0,-25.12 -2.72795,-37.44925 -17.32795,-52.06925 l -48.33999,-41.56506 c -10.95,-10.95001 -19.61066,-13.69983 -19.61066,-29.22983 V 68.054405 c 0,-8.22 5.92811,-10.052521 10.02811,-10.052521 3.19,0 9.58255,1.830283 9.58255,10.510285 v 38.360711 c 0,6.85 5.47083,12.32914 12.31083,12.32914 h 39.22131 c 6.83999,0 12.31692,-5.47914 12.31692,-12.32914 V 71.704319 c 0,-21.000001 -7.30056,-38.364207 -23.26056,-53.894207 C 287.04044,5.4801121 271.98997,0 248.72997,0 Z m 174.24367,0 c -20.07,0 -39.22152,4.1101121 -52.91153,17.810112 -15.04999,14.61 -23.24836,31.514205 -23.24836,53.894207 V 267.63386 c 0,22.39 8.19837,38.83031 23.24836,53.90031 13.69001,13.70001 32.84153,17.81012 52.91153,17.81012 28.28002,0 41.0504,-7.77225 54.73041,-21.47222 0.91001,-1.05001 3.18604,14.91701 3.18604,14.91701 h 18.24956 V 187.17097 c 0,-6.85 -5.47692,-12.32913 -12.31691,-12.32913 h -51.53216 c -6.84999,0 -12.31694,5.47913 -12.31694,12.32913 v 11.40751 c 0,6.94 5.46636,12.42069 13.22638,12.42069 v 60.29071 c -1.83,9.59 -9.12693,10.50418 -12.31694,10.50418 -3.19001,0 -12.31082,-0.91418 -12.31082,-10.50418 V 68.054405 c 0,-9.590001 8.2114,-10.504182 11.40138,-10.504182 3.19001,0 11.39531,0.914181 11.39531,10.504182 v 58.459645 c 0,6.85 5.47083,12.32914 12.31082,12.32914 h 40.14297 c 6.83999,0 12.31691,-5.47914 12.31691,-12.32914 V 71.704319 c 0,-22.380002 -8.21668,-39.284207 -23.26666,-53.894207 C 462.19298,4.1101121 443.04367,0 422.97364,0 Z"
     style="fill:#ffffff;fill-opacity:1;stroke-width:1" />
</svg>
