<svg xmlns="http://www.w3.org/2000/svg" width="121.07" height="81.44" viewBox="0 0 121.07 81.44"><title>DSG-Logo-black</title><path d="M3.05,0A3,3,0,0,0,0,3.06V78.39a3,3,0,0,0,3.05,3.05H18.88A18.82,18.82,0,0,0,32.1,76.13a19.83,19.83,0,0,0,5.77-14.25V19.57A19.82,19.82,0,0,0,32.1,5.32,18.83,18.83,0,0,0,18.88,0ZM16.16,13.35h2.71c1.7,0,2.83,1.13,2.83,3.51V64.59c0,2.37-.91,3.51-2.83,3.51H16.16Z" transform="translate(0)" style="fill:#ffc40b"/><path d="M61,0c-5.69,0-9.3,1.32-12.37,4.27A17.14,17.14,0,0,0,43,17.21v9.87A13.43,13.43,0,0,0,47.4,37.71L58.79,48c3.72,3.62,4.71,3.94,4.71,7.34V65a2.43,2.43,0,0,1-2.63,2.41A2.47,2.47,0,0,1,58.13,65V54.59a3,3,0,0,0-3-3H46a2.94,2.94,0,0,0-3,3v9.65a16.91,16.91,0,0,0,5.58,12.82c3.06,3.07,6.68,4.39,12.26,4.39,5.8,0,9.85-1.43,12.81-4.39a16.91,16.91,0,0,0,5.58-12.82V55c0-6-.65-9-4.16-12.5l-11.6-10c-2.63-2.63-4.71-3.29-4.71-7V16.33a2.22,2.22,0,0,1,2.41-2.41,2.27,2.27,0,0,1,2.3,2.52v9.21a2.94,2.94,0,0,0,3,3h9.41a3,3,0,0,0,3-3V17.21A17.14,17.14,0,0,0,73.24,4.27C70.17,1.32,66.56,0,61,0ZM102.8,0C98,0,93.38,1,90.1,4.27a17.07,17.07,0,0,0-5.58,12.93v47A17.24,17.24,0,0,0,90.1,77.17c3.29,3.29,7.88,4.27,12.7,4.27,6.79,0,9.85-1.87,13.14-5.15.22-.25.76,3.58.76,3.58h4.38V44.92a3,3,0,0,0-3-3H105.75a2.94,2.94,0,0,0-3,3v2.74a3,3,0,0,0,3.17,3V65.11a2.82,2.82,0,0,1-3,2.52c-.77,0-3-.22-3-2.52V16.33a2.74,2.74,0,0,1,5.47,0v14a2.94,2.94,0,0,0,3,3h9.63a3,3,0,0,0,3-3V17.21a17.07,17.07,0,0,0-5.58-12.93C112.21,1,107.61,0,102.8,0Z" transform="translate(0)"/></svg>