<svg id="Ebene_1" data-name="Ebene 1" xmlns="http://www.w3.org/2000/svg" viewBox="0 0 2112.71 2825.47"><defs><style>.cls-1{fill:#99a692;}</style></defs><title>IR58_Color</title><path d="M2112.52,308V2516c-.62,3.53-1.67,7-1.8,10.6-.75,20.11-4.43,39.76-9.82,59q-24.21,86.71-89.28,149.1a326.29,326.29,0,0,1-92.42,62.19c-45.47,20.5-93.49,28.49-143,28.49q-720.46.07-1440.91,0c-12.64,0-25.32-.61-37.9-1.72-50.95-4.52-98.46-19.66-142.16-46.52Q65,2721.68,24.22,2624C7.53,2584.18-.2,2542.58-.19,2499.31Q0,1621.37-.12,743.42q0-209,.06-418a312.56,312.56,0,0,1,1.47-34.93c8.65-76.26,39.69-141.95,94.38-196C158.8,32.26,235.05.31,323.43.24Q1055.88-.35,1788.34.12a300.23,300.23,0,0,1,31.93,1.64c77.84,8.35,144.67,40.07,199.29,96.19,54.27,55.76,85.31,122.45,91.16,200.44A85.7,85.7,0,0,0,2112.52,308Z" transform="translate(0.19)"/><path class="cls-1" d="M2087,1412.41q0-544-.18-1088c-.11-90.79-36-166.47-104.18-226C1926.44,49.35,1860,25.8,1785.4,25.79q-725-.13-1449.92,0c-8.66,0-17.33.14-26,.64C224.67,31.33,153.82,65.63,98.21,129.68c-49.12,56.57-73.07,123-73.06,198.12q.09,1085.44.08,2170.89c0,9,.21,18,1,26.94,7,77.79,39.27,143.49,96.87,196,57.33,52.28,125.43,78.07,203.17,78.07q730,0,1459.92,0c64,0,122.64-17.57,174.27-55.22,82.15-59.89,126-141.27,126.26-243.16Q2087.88,1956.89,2087,1412.41Z" transform="translate(0.19)"/><path d="M246.17,1129c.55.35,1.18,1.09,1.65,1,10.21-2,18.69,2.14,27.27,6.92,8.15,4.54,10.63,2.75,12.83-6.74,1.94-8.39,3.44-17.14,7.07-24.82,8.22-17.36,23.86-27.38,39.89-36.53,4.26-2.43,8.66-1.87,13,1.35,6.11,4.48,7.9,3.55,9-3.32,1.74-10.69,4.5-13.74,15.07-12.56,20.84,2.34,41.58,5.65,62.36,8.61a15.35,15.35,0,0,1,3.81,1.2c5.69,2.44,6.59,5.86,2.6,10.86a44.92,44.92,0,0,1-7,7.14c-13.28,10.59-26.5,21.27-40.12,31.42-8.44,6.29-12,5.47-18.35-2.81-2.81-3.69-5-7.87-7.62-11.7-1.75-2.52-3.86-4.79-5.72-7.07-4.7,2.64-4.23,5.77-3,8.48a87.22,87.22,0,0,0,7.31,14.17c10.86,16,23.91,29.48,42.76,36,1.26.44,2.81.72,3.61,1.61,1.42,1.59,3.13,3.55,3.26,5.45.08,1.23-2.31,3.59-3.82,3.79-6.54.86-13.19,1.73-19.76,1.46-16-.66-31.9-2-47.85-3a31.35,31.35,0,0,0-6,.11c-6.16.81-8,4.12-5,9.77,2.17,4.11,5.08,7.82,7.59,11.75,4.73,7.4,5.31,9.5-.51,16-19.92,22.32-8,60.89,21.33,74.19,11.3,5.12,17.46,2.18,21.27-9.57a109,109,0,0,0,3.12-10.54c2.2-10.19,8.25-15.52,18.77-16,3.07-.15,6.1-1.32,11.5-2.57-3.69-2.75-5.19-4.34-7-5.1a29,29,0,0,0-6.81-1.5c-18.24-2.76-18.68-2.42-25.56,15a100.14,100.14,0,0,1-6.82,14.44q-6,10.1-13.54,1.69c-8.19-9.14-13.63-19.76-14.79-32.16-.61-6.52.86-12.89,5.5-17.64,9.79-10,12.71-20.8,5.3-33.41-.27-.46.08-1.28.26-3.3,2.72-.43,5.83-1.54,8.82-1.27,12.26,1.13,24.55,2.3,36.7,4.28a28,28,0,0,1,12.33,5.84,28.1,28.1,0,0,0,15.39,6.33c6,.59,11.94,1.28,17.84,2.32,3.72.65,7.32,2,11.08,3.09-1.54,5.45-5.39,5.11-8.41,5.76-5.2,1.12-10.58,1.51-15.72,2.86-1.78.47-4.2,2.84-4.24,4.4s2.09,3.84,3.83,4.92c1.56,1,3.85.94,5.83,1.05,7.65.43,15.3.88,23,1,2.17,0,4.36-1,7.41-1.71,0-10,0-19.6,0-29.23,0-8.33.09-16.67,0-25-.12-8.56-.31-8.92-8.61-10.4-14.1-2.5-28.26-4.67-42.38-7.1-2.84-.49-5.58-1.49-10.08-2.73,3.25-3.89,5.22-6.85,7.77-9.2,15.41-14.24,30.78-28.53,46.55-42.36,4.67-4.09,7.2-8.1,6.89-14.44-.45-9.26-.12-18.56-.12-27.32a33,33,0,0,1,3.3-2.25c7.64-3.67,8.53-5.21,4-11.62-6-8.54-7.19-17.77-5.65-27.61,1.59-10.09,1.89-20.51,7.52-31.68,1.51,3.67,2.88,5.79,3.24,8.08,2.11,13.55,9.06,25,15.91,36.39,4.1,6.86,8.67,13.45,12.61,20.39,2.06,3.64,4.69,5.42,8.76,5.36,2.33,0,4.67.07,7,0,8.9-.18,10.35-.91,12.86-9.39,3.25-11,7.56-21.3,15.16-30.09,8.93-10.32,20.31-13.69,33.23-9.52,8.45,2.73,12.32,7.17,12.09,16.12-.18,6.93-1.82,13.83-2.79,20.74-.49,3.51-.94,7-1.59,11.94,6.47,0,11.83.68,16.93-.18,5.69-1,10.44-3.84,11.86-10.47,1.11-5.19,3-10.22,4.55-15.32,3.16-10.27,10.32-15.59,20.86-15.17,12.3.5,24.57,1.78,36.82,3,5.28.55,10.45,2.1,15.72,2.87,8.3,1.22,13,6.05,15.05,14,1.24,4.84,2.51,9.67,3.79,14.51,1.15,4.34,3.65,7,8.46,6.92,5-.07,10,.21,15-.07,5.78-.33,7.74-3.07,6.09-8.52-.75-2.5-2.35-4.74-3.57-7.1a73.54,73.54,0,0,1-4.07-8c-2.27-6.16-.6-9.71,5.63-11.37,9.94-2.64,18.73.34,25.46,7.63,6.3,6.82,11.44,14.7,17.44,21.82,2,2.32,5,5.21,7.58,5.29,13.3.44,26.64.06,40-.11.89,0,1.78-.76,2.87-1.26-1.68-5.91-6.62-8-11.3-10.39q-29.86-15.16-59.72-30.31c-2.87-1.46-5.63-3.16-9.41-5.3L771,986.15c-4.41-2-6.87-3.28-9.41-4.34-5.53-2.3-11.43-3.92-16.57-6.89-10.91-6.31-13.75-15.45-7.52-26.26a59,59,0,0,1,13.66-15.48c5.46-4.5,11.83-3.55,17.44,1q5,4.08,10.25,7.95c5.09,3.76,10.92,4.21,16,1,5.81-3.67,11.85-7.81,16-13.16,7.6-9.9,17-14.66,29.18-14.25,13,.43,26,1,38.93,1.53,12.59.52,24.4-2.88,36.06-7.08a4.63,4.63,0,0,0,.93-.36c12.58-8,25.27-15.87,37.66-24.18,3.53-2.37,6.24-4.47,10.76-2.24a11.28,11.28,0,0,0,7.68.35c10.77-3.43,21.42-7.27,32.08-11.05a22,22,0,0,0,4.38-2.39c3.73-2.4,7.56-5.09,6.45-10.21s-6-4.87-9.77-5.13c-11-.74-22-.64-32.91-1.62-17.22-1.55-34.46-3.16-51.53-5.83a49.5,49.5,0,0,1-30.25-16.26c-7-8-6.85-12.87.53-20.67,5.47-5.78,12.46-7.76,19.8-8.32,14.94-1.14,29.91-1.77,44.88-2.47,11.63-.55,23.28-.76,34.92-1.34,10.49-.52,20.53-2.81,28.88-9.67,2.35-1.93,4.09-4.62,6.9-7.89-8.84-4.37-16.73-4.68-24.61-4.41-32.07,1.11-63.85,4.81-94.56,14.36-25.11,7.81-49.75,17.12-74.64,25.63-14.79,5.06-29.32,11.46-45.25,11.93-18.67.55-35.51-4.42-49.24-17.9-17.27-17-14-46.21,1.52-62.51,1.77-1.86,5.88-3.7,7.59-2.87,2.51,1.22,5.16,4.77,5.39,7.52.48,5.89-.2,12-1,17.86-1.71,12.23.62,16.77,11.65,22.25,10.38,5.15,21.46,4.84,32.35,3.64s21.68-3.63,32.38-6.08c8.49-1.94,9.65-4.65,6.61-12.93-4.13-11.25-8.91-22.29-12.52-33.7-5.66-17.9-6.21-36,.36-53.94,4.24-11.61,12-20.7,20.39-29.29a136.43,136.43,0,0,1,13.54-11.83c6.74-5.27,11.89-11.61,14.81-19.69,3.09-8.54,9.55-14.37,16.38-19.73,6.35-5,14-6.46,21.79-5.38,9,1.25,15.57-2.06,21.1-8.6.21-.25.49-.46.7-.71,18.21-21.56,42-28.68,69.47-28.69,45.69,0,91.21,2.63,136.67,6.58,21.91,1.9,42.57,8.59,59.39,23.65,18.57,16.64,27.75,38.28,29.62,62.63a435.61,435.61,0,0,1-2.91,95.72c-.54,3.75-.62,7.57-1,12.83,8.9-4.29,10.77-15.11,20.78-15.44.55,1.53,1.31,2.71,1.35,3.9,1,29.55,10.47,57,22.23,83.54,8.89,20.07,19.57,39.34,29.46,59,1.33,2.63,2.7,5.23,4.39,8.49l-9.58,7.74c-6.85-6.28-13.72-11.57-19.37-17.94-15.68-17.69-30.79-35.89-46.29-53.75-4.87-5.61-7.22-11.71-6.48-19.18a28.63,28.63,0,0,0-1.71-13.31c-.89,1.44-2.2,2.77-2.6,4.33-6.1,23.82-6,25,10.16,44.13,17,20.11,34.93,39.38,56,55.4,7.3,5.53,6.89,9.64-1,14.37-2,1.2-4.21,2-6.24,3.16a7.46,7.46,0,0,0-3.81,4.59c4.27-1.55,8.65-2.86,12.8-4.69,28.42-12.48,53.13-30.41,75.4-51.81,33.53-32.23,59.12-70.42,81-111a1754.93,1754.93,0,0,0,103.8-232.56c5.94-16.33,12.48-32.35,23.26-46.24,17.58-22.64,41.55-27.24,66.37-12.63,11.63,6.84,21.36,15.88,29.87,26.28a172.32,172.32,0,0,1,33.65,66.4c11.46,44,18.3,88.83,17.58,134.4-.57,35.69-5.7,71-11.55,106.22-10.12,61-26.43,120.37-46.77,178.69-1.12,3.21-3.12,6.11-4.64,9-6.14-1.81-5.25-5.91-5.38-9.4-.84-23-1.09-46-2.53-68.88-2.25-35.55-4-71.2-8.29-106.54-6.87-57.22-15.55-114.23-23.54-171.32-.53-3.78-1.68-7.48-3-13.11-2.81,3.24-4.6,4.65-5.5,6.48a97.25,97.25,0,0,0-5.41,12.86c-6.37,19.65-12.76,39.3-18.62,59.1a30,30,0,0,0-.69,14.56,58.31,58.31,0,0,1-1.3,30.57,136.59,136.59,0,0,1-6.78,18.79c-6.72,14.2-9.15,29.15-9.08,44.65.09,22.39-12,36.73-31,46-5.14,2.51-8,5.26-8.68,10.82-1.72,14.77-9.71,26.34-20.63,35.45-8.62,7.19-18.38,13.18-28.19,18.72-6.65,3.75-12.13,7.83-15.2,15-4.5,10.57-12.89,17.65-22.43,23.46-13.37,8.15-26.84,16.13-40.19,24.31a126.7,126.7,0,0,0-11.48,8c-16.76,13-35.92,18.67-56.9,18.32-7.67-.12-14.27.6-19.5,7.41-2.45,3.18-7.09,4.71-10.81,6.86-2.19,1.26-4.52,2.27-6.61,4.19,7.94,2,15.63,4.14,23.26-1.17,2-1.38,5-1.61,7.53-1.77,4.32-.28,8.66-.18,13-.08,9.53.23,18.58-1.08,26.44-7.17,1.76-1.37,4.1-2,7.56-3.6.85,3.71,1.51,6.73,2.25,9.73,1,4.22,3.9,6.1,8.12,5.69,4.45-.43,4.9-3.82,5-7.33a13.65,13.65,0,0,0-.12-4c-2.75-9.53,1.08-15.78,9.18-20.74,7.08-4.35,13.52-9.72,20.41-14.41,3-2,6.31-3.42,10.64-5.71,1.69,4.47,3.43,7.95,4.32,11.63,2.35,9.71,4.29,19.53,6.47,29.28.58,2.59.7,5.78,2.31,7.53a10.51,10.51,0,0,0,7.46,3.2c3.49-.25,3-3.72,2.6-6.39-1.74-10.52-3.61-21-5.29-31.54-.58-3.61-.74-7.29-1.13-10.93-.74-6.83,1.65-11.82,7-16.53,5.64-5,10.23-11.26,14.57-17.47,2.8-4,5.49-7.07,10.51-8.36,4.73-1.22,9.12-3.73,14.87-6.19,1,3.19,2.16,6.13,2.69,9.19,4.35,25.22,12.63,48.92,25.93,70.9,2.82,4.66,3.88,10.38,6.2,16.89a3.3,3.3,0,0,0,2.1,1q19,.25,38,.19c5.6,0,8.94-3.2,11.56-8.06,9.75-18.12,17.4-36.76,16.59-57.89-.07-1.91.62-3.86,1.05-6.33,9.14,1.36,14.38-4.19,18.94-10.53s8.92-13.28,13.49-19.84c1.79-2.56,4-4.87,7.39-9,1.26,6.05,2.47,9.8,2.76,13.61,1.67,22.25,3.15,44.51,4.62,66.77.42,6.31.83,12.64.82,19,0,5.87.12,11,6.79,14,4.54,2,3.79,7.33,3.8,11.66q0,33,0,66,0,8.41,0,16.83l2.05.31c.73-2,1.94-3.87,2.1-5.86.88-10.61,1.8-21.24,2.14-31.88.37-11.32-.18-22.67.24-34a72.84,72.84,0,0,1,2.64-17.68c6.37-21.71,13.38-43.23,19.8-64.93,3-10.22,5.2-20.68,7.83-31a24.1,24.1,0,0,1,4.34-9.46c.48,2.32,1.3,4.62,1.39,7,1.26,34.28,3,68.55,3.44,102.85.44,33,.23,66-.87,99-3,89-10.42,177.62-29.17,264.91-3.14,14.63-7.36,29.08-11.94,43.34-4.4,13.69-4.23,27.54-3.64,41.54,0,.79.88,1.55,1.62,2.79,4.29-2.93,4.6-7.46,5.71-11.36a1052.39,1052.39,0,0,0,28.64-133.83q11.31-75.16,15.94-151c1.7-27.91,2.37-55.9,2.77-83.86.46-32,.53-64,0-96-.68-41-2.3-81.88-3.14-122.83a150.48,150.48,0,0,1,2-26.79c5.5-34.2,12.71-68.18,16.83-102.54,4.08-34.05,3.59-68.48,2-102.79-.51-11-.36-22-1.69-32.91-5.64-46-20.91-88.68-44.39-128.52-2.87-4.88-6-9.68-8.14-14.88a22.7,22.7,0,0,1-1.58-11.52c1-6.28,5.82-8.68,12-6.5,9.68,3.43,18.12,9,23.06,18.17a262.56,262.56,0,0,1,14,29.8,1091.85,1091.85,0,0,1,66,266.12c4,34.39,6.91,68.93,9.83,103.44,1.06,12.59.95,25.3,1,38,.11,39-.1,77.92.08,116.89.25,54-3.52,107.83-9.13,161.52-5.55,53.08-13.47,105.81-25.78,157.76-18.4,77.65-41.47,153.78-77.26,225.52-8,16.1-15.17,32.73-24.41,48.1-8,13.38-7.83,27.06-6.66,41.52a10.44,10.44,0,0,0,2.6,1.43c7.32,1.46,7.93,2,6.26,8.93-1.63,6.79-3.94,13.42-5.82,20.16a109.09,109.09,0,0,0-3,12.61c-.48,3.11-.09,6.36-.09,9.54l2.56.67c1.46-3.33,3.31-6.56,4.32-10,4.86-16.63,9.63-33.29,14.15-50a111.31,111.31,0,0,1,14-31.86c26.11-40.31,45.15-83.8,58-130.05,2.42-8.74,2.49-8.72,8.43-14.43,1,4.4,2.61,8.07,2.61,11.73,0,16.65-.74,33.3-.71,49.95,0,28.65,0,57.31.85,85.94.89,29.87-1.39,59-11,87.67-15.17,45.21-31,90.08-50.81,133.52a771.2,771.2,0,0,1-44.68,83.73c-1.39,2.26-3.16,4.54-3.69,7-2.73,12.93-5.11,25.93-7.58,38.7,10.05,3.32,12.18,2.65,15.86-5.63,18.7-42,38.17-83.7,55.63-126.22,16.57-40.35,31.27-81.49,46.23-122.48,7-19.06,19.9-33.71,33-48.38a9.64,9.64,0,0,1,7.8-2.49c1.67.33,2.92,3.87,3.9,6.17.62,1.46.48,3.27.56,4.93q6.06,118.42-47.08,224.43c-20.09,40.13-45.36,76.88-76.61,109.31q-9.36,9.71-18.87,19.26c-5,5-5.14,6.52-.6,11.52,4.16,4.57,5.74,4.84,10.73.3,17.54-16,33.69-33.2,47.38-52.62,18.1-25.67,33.33-53,47-81.28,2.75-5.7,5.61-11.36,8.69-16.88,1.53-2.75,2.84-6.32,8-5.23,2.7,5.21.57,10.69-.31,16.07-5.24,32.23-11.16,64.36-15.69,96.69-4.81,34.31-7.8,68.84-7.79,103.56,0,21,0,41.93,0,62.89,0,2.59.5,5.17.92,9.23,10.2-2.5,19.61-5.49,29.24-7s19.54-1.42,30.14-2.08c-1-3-1.71-5.5-2.75-7.82-13.41-29.94-22.47-61.28-29.92-93.13a53.06,53.06,0,0,1-1.1-11.89c-.08-34.67.13-69.33-.11-104-.15-22.33,5.39-43.55,11.64-64.66.77-2.62,2.67-4.9,4.07-7.37,5.66,1.82,5.54,5.67,5.74,9.24.87,15.62,1.55,31.26,2.57,46.88,1.14,17.35,3.82,34.45,9.54,50.94a62.27,62.27,0,0,0,5.3,11.81c2.75,4.54,5.88,5.14,10,1.77a57.7,57.7,0,0,0,9.51-10.18c5.92-8,11.34-16.47,17.19-24.57,2-2.78,4.71-5.06,8.7-9.27,1.65,5.38,3.31,8.57,3.5,11.85.79,13.63,1.56,27.28,1.56,40.92,0,34,.88,67.92,4.45,101.77,5,47.11,18.6,91.27,43.11,131.94a44.73,44.73,0,0,1,4.53,8.87c2,6-1.17,9.55-7.09,7.56a151.81,151.81,0,0,1-23.91-10c-8.16-4.42-15.65-10.09-23.38-15.29-2.73-1.83-5.34-3.85-8.06-5.83a20.57,20.57,0,0,0-3.93,1.89c-4.32,3.49-7.62,2.1-11.33-1.37s-8-7.13-12.63-9.4c-5.83-2.85-9.62-.64-9.29,5.62,1.16,22.22-11.32,39.21-21,57.28-3.2,6-9,7.67-15.22,7.85-6.61.19-13.23,0-21.15,0,0,2.83-.44,6.34.07,9.71a1136.08,1136.08,0,0,0,39.61,170.22c3.88,12.4,7.92,24.75,11.8,37.15a29.52,29.52,0,0,1,1.66,7.77c.1,3.62-3,5.52-6.11,3.71a34.18,34.18,0,0,1-6.85-5.73c-23.29-23.54-43.1-49.9-62.32-76.75-1.79-2.5-3.86-4.81-5.8-7.2l-2.32.81c-.19,5.46,0,11-.69,16.38-.61,4.85-1.29,10-3.52,14.25-3.27,6.19-8.47,5.8-12.18-.2-1.92-3.11-3.53-6.42-5.41-9.56a17.1,17.1,0,0,0-12-8.25c-8-1.55-10.58.41-12.73,8.38-1.63,6-3,12.55-6.42,17.59-8.14,12.11-20.62,13.51-33.87,11-16.75-3.21-28.64-13.45-38.15-27-2-2.81-4-5.56-6.82-9.35-5.48,10-2.2,19.27-3.8,27.9-1.52,8.26.88,17.23-4,25.17-6.37-.28-8-5.14-10.45-8.81-24.43-36.8-40-77.41-51.48-119.79a78.84,78.84,0,0,0-6.36-15.58c-7.08-13.57-9.44-28.4-11.9-43.16-1.53-9.19-5.85-16.09-13.73-21-5.49-3.39-6.74-3.5-11.11,1.23-7.23,7.83-14.18,15.92-21.4,23.76-78.94,85.71-175.91,139.07-290.05,161.58a510.34,510.34,0,0,1-105.27,10c-25.64-.32-51.39.14-76.89-2a532.83,532.83,0,0,1-179.78-47.43c-60.33-27.9-113-66.35-159.35-113.76-9.77-10-18.68-20.82-27.95-31.3-6.44-7.29-7.6-7.19-15.54-1.36-6.58,4.83-10.14,10.95-11.79,18.92-2.48,12.05-5.14,24.15-9,35.82-5.24,16-16.18,26.53-33.34,29.49-7.52,1.3-13.68,5-19.05,10.22-10.92,10.71-19,22.55-21.52,38.39-3.29,20.45-13.53,37.44-30.88,49.55-9,6.28-19,8.78-30,9.44-11.43.68-25.43-8.6-28.63-22-.62-2.59-1-5.24-1.58-7.83-1.77-7.72-4.28-9.36-11.9-8.19-6.08.94-10.33,4.35-13.34,9.51-1.51,2.59-2.81,5.3-4.35,7.87-4.15,6.92-9.31,6.79-13.38-.32a9.7,9.7,0,0,1-1.57-3.65c-1.32-15.26-3.63-30.8,4-45.07,7.41-13.9,18.32-24.42,33.24-30.38,8.08-3.22,16.41-4.23,24.3-.46,9.31,4.45,15,1.31,21.32-6,25.45-29.58,49.9-59.92,72.19-92,2.59-3.72,4.52-7.91,6.83-12-6.38-5.2-12.09-3.52-17.35-.51-5.48,3.13-10.34,7.33-15.79,10.52-8,4.68-16,9.69-24.57,13.09-12,4.77-20.36,1.44-27.51-9.21a11.06,11.06,0,0,1-1.94-3.48c-2.92-13.5-12.37-15.2-24.19-14.64-11.27.53-22.63-.23-33.92-1-9-.58-15.94,2.39-22.54,8.42-12.76,11.67-27.82,17.82-45.51,17.18-8.86-.32-15.31-3.22-19.12-11.65a166.21,166.21,0,0,0-8.72-15.72c-6.21-10.53-10.36-21.61-9.76-34.09a22.9,22.9,0,0,0-.19-5c-.82-4.71-3.41-6.89-7.67-5a48.08,48.08,0,0,0-13.17,8.56c-7.36,6.76-11.54,6.28-15.58-2.71-2.9-6.44-2.1-12.59,2.47-17.74,6.85-7.72,13.78-15.45,21.46-22.31a21,21,0,0,1,12.59-4.71c20.32-.48,40.67-.54,61,0,5,.14,10.28,2.47,14.74,5,23.41,13.25,47.48,18.51,73.57,8.38,3.75-1.46,8.38-1.35,12.52-1,16.9,1.4,33.77,3.24,50.66,4.76,2.54.23,5.16-.44,9-.81-.74-3.08-.87-5.68-2-7.78-4.44-8.46-5.59-17.62-7-26.89a155.18,155.18,0,0,0-6.58-24.95c-2.16-6.47-7.22-10.23-14.18-11.09-1.32-.16-2.62-.49-3.93-.7-21.9-3.5-35.57-19.78-36.13-42-.38-14.79,3.38-27.67,14.26-38,8.34-8,10.27-17.62,7.57-28.42-2.35-9.37-4.94-18.67-7.51-28-2.41-8.74-.32-11.57,8.84-11.67,3.6,0,7.19,0,11.82,0a77.12,77.12,0,0,0,0-8.85c-3.84-31.74-7.8-63.46-11.66-95.19a84.56,84.56,0,0,1-.43-10q-.49-214-.9-427.94c0-22.65.5-45.3.92-67.95a39.48,39.48,0,0,0-6.42-22.65c-2.83-4.44-4.6-9.56-6.83-14.38-6.53-14.17-15.2-16.27-27.33-6.65a10.86,10.86,0,0,1-2.63,1.13c-4.73-9.15-3.2-13.27,5.92-15.16,3.55-.73,7.29-.5,10.94-.8,7.84-.64,10-4.72,5.53-11.32-3.33-5-7.42-9.43-10.9-14.31-5.69-8-5-10.85,3.54-15.75,4.33-2.48,9-4.42,13.25-7,10.35-6.27,15.71-17.67,13.6-28.8-5.27-.46-8.52,2.76-11.38,6.47a49.45,49.45,0,0,1-22,16.68c-12.86,4.78-18.88,13.66-19.19,27.3-.14,6.26-1.54,12.58-3.09,18.7-4.38,17.29-15.74,24.8-33.53,21.92a107.16,107.16,0,0,1-46.76-19.1c-4.31-3.14-8.37-6.64-12.8-9.58-1.41-.93-4.14-1.38-5.38-.62s-1.29,3.31-1.71,5.11c-.14.59.33,1.29.37,1.94.33,6.94-2.61,9.22-9.09,6.48-4-1.67-7.38-4.61-11.35-6.24-2.52-1-6.46-1.91-8.17-.66s-2.15,5.28-1.88,8a28.61,28.61,0,0,0,7,16.19c5,5.79,3,10.44-4.52,12.07a35.2,35.2,0,0,1-9,.47,220.51,220.51,0,0,0-75.85,9.91,75.56,75.56,0,0,1-12.65,2.89c-9.77,1.25-14.69-5.32-10.48-14.22,5.59-11.81,15.64-19,27.44-23.46,11.56-4.4,23.54-7,36.13-6.7,13.16.36,15.23-2,13.65-15.15a75.06,75.06,0,0,0-11-31.88c-4.3-6.73-9.87-10.47-18.52-7.93a75.86,75.86,0,0,1-16.71,2.83c-6.83.41-9.05-3.75-5.35-9.54,2.14-3.35,5.18-6.14,7.23-9.53,3.25-5.35,1-10.72-5.14-10.72-7.18,0-14.45,1.49-21.5,3.1-6.14,1.4-11.92,4.32-18.05,5.77-7.23,1.71-9.2-.87-6.77-7.84,2.64-7.58,1.76-9.37-6.18-10.68-9.86-1.63-19.79-2.81-29.65-4.42a50.94,50.94,0,0,1-10.59-2.86c-8.52-3.39-9.45-6.53-4.29-16.48l38.81-1.34c1,0,2,0,3,0,17.72.32,19-.75,22.44-17.85a48,48,0,0,1,2.36-8.67c4.43-10.88,13.59-13.16,22.06-5.16a43.81,43.81,0,0,1,8.88,11.94c3.27,6.51,5.53,13.54,8.26,20.33,3.23,8,6.41,16.07,9.84,24a18.16,18.16,0,0,0,4.38,6.59c1.43,1.23,4,1.13,6.05,1.63.33-1.85,1.09-3.74.88-5.52s-1.39-3.72-2.1-5.58c-10.43-27.15-19.12-54.77-21.71-83.91-1.37-15.4-9.51-18.92-23.61-12.26-8.67,4.1-16.42,10.13-24.67,15.16-3.4,2.07-6.84,4.29-10.57,5.53-6.07,2-9.65-.13-11.07-6.43a26.8,26.8,0,0,1,4.4-21.88c3.83-5.39,8.86-9.91,13.05-15.06,5.66-7,11.26-14,16.36-21.34,1.47-2.12,2.45-6.75,1.28-8-1.84-2-5.82-3.09-8.7-2.77-4.18.47-8.2,2.45-12.24,3.94s-7.91,3.68-12.07,4.66c-7.34,1.73-12.95-3.67-10.66-10.83a25,25,0,0,1,8.2-11.93c9.07-6.72,18.91-12.38,28.49-18.4,2.54-1.59,5.31-2.8,7.84-4.41,5.89-3.74,6.2-5.55,2.28-11a33.19,33.19,0,0,1-3.84-5.76c-4.23-9.72-12-12.78-21.89-12-4.31.34-8.63,1.22-12.92,1.12-8.38-.2-11.29-5.69-6.54-12.73,2.56-3.78,6.13-7,9.66-10,4.82-4.09,10.3-7.43,15-11.68,2.18-2,3.12-5.34,4.62-8.07-2.62-1-5.16-2.46-7.88-3-4.89-1-9.9-1.34-14.82-2.18a25.85,25.85,0,0,1-6.64-2.07c-9-4.29-10.1-11.53-2.43-17.93a41.52,41.52,0,0,1,11.08-6.63c21.51-8.54,43.12-7.7,64.18,1.23,11.56,4.9,20.49,13.54,27.11,24.35,1.39,2.27,2.7,4.6,4,6.94,6.7,12.51,10.19,13.56,22.77,6.08,11.73-7,24.59-10.2,37.9-11.7,4.15-.47,8.62.44,12.7,1.57,1.74.48,3.94,3.11,4,4.82s-2,4.67-3.63,5.11c-7,1.88-14.22,3.8-21.44,4.28-17,1.12-30.29,9.2-42.19,20.47a23.9,23.9,0,0,0-3.32,3.73c-4.56,6.64-2.67,11.29,5.2,12.83,2.94.57,6.17.37,8.82,1.52,2.46,1.07,5.35,3.14,6.13,5.43.57,1.66-1.53,4.88-3.26,6.55-6.71,6.46-13.83,12.49-20.63,18.86-11.26,10.55-21,22.29-28.1,36.11-1.21,2.36-2.62,4.77-3.08,7.31-.29,1.59.53,4.29,1.73,5a5.78,5.78,0,0,0,5.41-.5c2.18-1.91,3.75-4.61,5.3-7.14,4.88-7.94,9.45-16.08,14.49-23.91,5.5-8.54,13.47-13.39,23.46-15.62,5.76-1.28,11.23-3.92,16.76-6.14,3.39-1.36,6.53-3.37,10-4.54,8-2.71,9.5-2.18,12.5,5.87,1.88,5,5.48,5.85,9.48,4.82,6.41-1.66,12.59-4.24,18.9-6.33,3.91-1.3,9-5.57,11.7-.93,3.37,5.75-3.77,7.4-7.09,9.92-8.75,6.63-18.05,12.53-26.76,19.21A72.7,72.7,0,0,0,278,1110.94q-.49,1.42-1.09,2.79c-3.38,7.84-5.15,8.46-12.66,4.46C254.93,1113.22,247.09,1117.91,246.17,1129Zm760.14,916.66q0-200,0-400c0-14,0-14-13.62-14h-474c-14,0-14.06,0-14.06,14.6,0,70.33-.15,140.65.1,211,.06,16.29.89,32.64,2.35,48.87,6.86,76.25,24.8,149.73,55.55,220,34.36,78.5,80.77,148.47,144.5,206.43a493.47,493.47,0,0,0,132.71,86.2c48.18,21.39,98.67,34.32,151.13,39.77,13.68,1.42,15.36,4,15.34-13.88Q1006.21,2245.17,1006.31,2045.68Zm99.94-.69q0,198.94,0,397.89c0,3-.1,6,0,9,.35,7.19,1.38,8.15,8.4,7.42,8-.83,15.88-1.85,23.81-2.85,59.47-7.53,115.64-25.61,168.66-53.41,61.41-32.2,112.6-76.77,156.42-130.18,30.38-37,55.46-77.47,76.3-120.47,30.29-62.48,50.2-128.25,61.57-196.74,7.3-43.94,7.48-88.23,7.76-132.51.36-58.65.09-117.3.09-176,0-15.5,0-15.51-15-15.51H1121.39c-15.13,0-15.14,0-15.14,15.43Q1106.25,1846,1106.25,2045Zm251.82-966.85q-118,0-236,0c-17.21,0-15.85.12-15.85,15.83q0,211,0,421.95c0,2.67-.11,5.34.05,8,.39,6.49,1.26,7.4,7.72,7.84,3,.21,6,.07,9,.07h312q81.49,0,163,0c10.8,0,11.33-.55,11.33-11.3q0-215.47,0-430.95c0-10.82-.55-11.25-11.25-11.39-2.67,0-5.33,0-8,0Zm-603.25,453.7h236c15.51,0,15.53,0,15.53-15.24q0-211.46,0-422.93c0-15.52,0-15.54-15.19-15.54H520.2c-1.67,0-3.33,0-5,0-9.53.2-10.3.93-10.51,10.19-.07,3,0,6,0,9q0,187,0,373.93c0,16.66-.07,33.33,0,50,.06,9.52.95,10.33,10.16,10.56,2.66.07,5.33,0,8,0ZM549.15,2270v-1.16c4.67,0,9.33-.09,14,0,6.35.15,8.73,2.56,7.29,8.69a44.81,44.81,0,0,1-5.68,13.74c-9,14-17.76,28.26-27.94,41.39-21.83,28.17-44.41,55.77-66.88,83.44-5.56,6.85-9.67,14-11.73,22.77-1.63,7-5.56,13.41-8.75,20-1.3,2.67-3.4,4.93-5,7.48-1.87,3-1.28,5.54,1.49,7.87,11.28,9.48,25.34,8.32,34.3-3.38a45.52,45.52,0,0,0,6.34-12.35c2.46-6.89,4.16-14,6.29-21.06,2.53-8.31,5.51-16.29,11.45-23.05a248.56,248.56,0,0,0,16.44-21.33,44.91,44.91,0,0,1,23.6-17.55c2.54-.82,5-1.72,7.62-2.4,8.78-2.32,14.51-7.91,17.47-16.34a99.73,99.73,0,0,0,3.58-12.46c2.06-9.78,3.61-19.67,5.79-29.42,2.42-10.84,6.37-21,14.55-29.08,5.79-5.73,5.8-6,1.24-12.5C558.28,2221.81,530,2166.12,508.23,2107c-2.42-6.55-5.57-12.83-8.47-19.19-2.2-4.83-5.94-6.69-11.3-6.23-6,.51-12,.52-18,.6-5.53.07-9,2.8-9.61,8.16-.53,4.55-1,9.39-.06,13.78,2.95,13.59,11.52,21.25,25.67,22.63,9.2.9,15.42,5.09,20,12.87,6.51,11,11.7,22.52,12.71,35.44,1.4,17.83,9.18,31.52,24.38,41.35,8.76,5.67,8.32,9.76-.08,15.78-9.8,7-21.11,8-32.49,7.66-15.63-.48-31.24-1.9-46.87-2.55-5.21-.22-10.84-.37-15.64,1.28-14.32,4.92-28.17,3.49-42.16-.92a195.56,195.56,0,0,0-19.25-5.17,19.12,19.12,0,0,0-16.13,3.54c-8.46,6.7-18.21,9.45-28.71,10.28-5.31.42-10.67.61-15.9,1.51-2.77.48-6,1.62-7.86,3.56-6.17,6.39-6.2,23-.54,29.93,10.83,13.19,32.47,12.53,43.42-1.42a77.73,77.73,0,0,0,6.1-9.14c2.79-4.83,6.85-7.31,12.36-6.76,6.6.66,13.18,1.56,19.72,2.64,16.41,2.7,32.62,6.24,49.33.63,9.12-3.06,16.94,1.11,22.82,8.52,1.23,1.55,2,3.43,3.16,5.09,5,7.54,10.12,8.95,17.66,4,4.13-2.69,7.68-6.35,11.22-9.85,3.24-3.2,6.71-5.18,11.44-5.12C526.52,2270.13,537.84,2270,549.15,2270Zm1059.12-30.12c-13.19.08-25.6.55-36.84-6-11.53-6.68-12.08-11.31-1.31-18.45,14.16-9.4,21.46-22.38,22.64-39.09.86-12.26,5.74-23.14,11.15-33.93,4.91-9.8,12.18-14.81,23.42-15.88,17.43-1.66,28.94-20.2,24-36.81-1.4-4.71-4.1-7.45-9.21-7.54-6-.11-12-.07-18-.59-5.48-.47-9,1.63-10.94,6.61-3,7.78-5.82,15.6-8.72,23.4-10.91,29.39-23.21,58.19-38,85.84-14.33,26.75-29.84,52.81-47.78,77.34-3.08,4.21-3.25,7.33.48,11.31,9.41,10.06,14.43,22.19,16,35.89.8,6.94,2.28,13.81,3.41,20.71,2.76,16.91,10.73,29,28.71,32.89,11,2.37,18.73,9.67,24.95,18.78,3.38,4.95,6.59,10.16,10.77,14.37,9.26,9.32,14.43,20.46,17.7,33,2.26,8.66,5,17.4,9,25.34,6.8,13.45,17.25,16.43,31,10.22,9.06-4.1,9.49-6.53,4.54-15.05-4.32-7.42-9.17-15-11.14-23.19-2.22-9.18-6.4-16.52-12.23-23.54-16.62-20-33.64-39.67-49.35-60.36s-30.12-42.33-44.82-63.75a41.17,41.17,0,0,1-5.47-12.75c-1.9-7.25.38-9.89,7.88-9.76,15.32.26,30.63.82,45.95,1,4.67.06,8.14,1.81,11.57,4.86,4.7,4.17,9.59,8.34,15,11.43,5.65,3.21,10,1.58,13.84-3.68,1.17-1.61,1.95-3.49,3-5.17,5.89-9,14.74-13.12,24.92-9.86,11.22,3.58,22.3,3.32,33.57,1.5,9.85-1.59,19.63-3.55,29.49-5,8.76-1.3,15.73,1.24,19.47,10.11a26.37,26.37,0,0,0,4.48,6.6c11,12.82,31.51,13.45,42.28,1.51,7.41-8.21,5.29-17.28,2.71-26.4-2.38-8.39-9.59-8-16.21-8.64-5-.45-10.12-.25-14.88-1.51-7-1.85-14.58-3.51-20.36-7.5-8.55-5.9-17-7.06-26.49-4.51-3.85,1-7.63,2.37-11.41,3.65-14.23,4.82-28.48,6.43-43.09,1.31a33.9,33.9,0,0,0-12.71-1.93C1636.63,2237.49,1622,2238.84,1608.27,2239.91ZM929.18,825.28l.4,2.53c1.83.67,3.63,1.81,5.5,1.94,25.65,1.86,51.3,2,76.72-2.38,21-3.61,35.74-15.4,43.77-35.35,6.64-16.51,5.12-32-5.9-46.13-7.83-10-16.56-19.46-27.71-25.68-17.43-9.71-35.23-18.77-53.17-27.51-11.71-5.71-21.9-12.75-28-24.58-5.47-10.66-11.09-21.28-15.83-32.27-3.15-7.31-7.88-10.31-15.51-9.31-3,.39-6,.49-8.84,1.34-10.77,3.2-12.65,9.87-5.33,18.61,1.71,2,3.87,3.71,5.5,5.8,2.23,2.87,4.61,5.78,6.11,9,2.41,5.26.51,8.26-5.39,8.7-5.3.4-10.66.2-16,.17-12.4-.08-22.85,4.76-31.22,13.51a57.14,57.14,0,0,0-16.43,39.71c-.12,10,2.78,19.4,10.09,28.63,3.86-4.51,6.84-8,9.78-11.43,16.39-19.32,35.92-32.61,62.37-33,17.68-.26,34.64,1.67,48.62,14.08,4.24,3.76,9.35,4.56,14.86,4.74a111.55,111.55,0,0,1,37.06,7.38c12.29,4.78,21.65,12.85,27.53,24.82,9.2,18.71,2.81,39.56-15.22,49.68-11.29,6.33-23.24,9.74-36.29,9.35A261.42,261.42,0,0,0,940,821.92C936.33,822.62,932.79,824.14,929.18,825.28Zm675.88,1479.89c-2.49,11.4-2.52,22-1.85,32.53.15,2.4,1.92,5,3.55,7,14.75,18,29.67,35.93,44.44,53.94,4.18,5.09,8.75,6.37,14.92,3.51,11.84-5.47,23.31-3.74,34.38,2.65,2.32,1.34,4.93,2.17,8.59,3.74l-47.34-114.46c-.6.27-1.47.38-1.74.84-1.5,2.57-2.81,5.24-4.26,7.84-7.12,12.73-16.36,16.33-30.12,11.42-4.36-1.56-8.45-3.87-12.7-5.76C1610.63,2307.36,1608.24,2306.46,1605.07,2305.18ZM825,974.28l-.84-2.82c2.62-1.52,5.07-3.68,7.9-4.46,15.83-4.38,32-7.14,48.29-3.79,6.08,1.25,10-.18,14.19-4.3,11.48-11.35,25-17.14,41.57-15a111.3,111.3,0,0,0,22.87.35c6-.46,7.83-5.07,3.51-8.74-4.67-4-10.33-8.65-16-9.24-11-1.16-22.61-1.14-33.44,1-16.81,3.35-33.58,5.8-50.48,3.28-13-1.95-23.51,1.89-33.2,9.83-2.83,2.32-5.6,4.72-8.59,6.81-2.41,1.69-5,3.72-7.71,4.28-16.43,3.35-32.82,6.39-47.61-5.72-4.73-3.88-7.81-2.85-11.95,1.89-6.57,7.52-5.51,13.8,3.2,18.58a22.13,22.13,0,0,0,5.47,2.39c21.7,5,43.38,10,65.15,14.72,4,.86,8.66.9,11.54-5ZM966.5,750.77c-9.08-9.81-19.74-15.76-32.43-15.33a168.72,168.72,0,0,0-32.41,4.72c-6.29,1.47-12.41,4.78-17.87,8.38-8.57,5.66-13.06,18.11-10.24,27.78C904.63,769,935.56,760.93,966.5,750.77Zm675.61,1395.18c-3.77,0-5.76-.26-7.66,0-13.3,2.07-15,4.32-16.43,15.73-1.88,15.46-4.59,30.82-6.72,46.25-.42,3.06.13,6.26.27,10.51,9.41-.67,17.61-1.06,25.76-1.9,7.72-.79,8.32-1.65,7.88-9.32-.79-13.89-1.73-27.78-2.49-41.67C1642.39,2159.38,1642.33,2153.17,1642.11,2145.95ZM1072.82,652.4c-3.41-2.25-4.89-3.6-6.63-4.32-8.3-3.44-16.45-7.49-25.06-9.85-12.14-3.34-24.54-6.42-37-7.61-8-.76-16.44,1.46-24.36,3.56-4.9,1.3-5.4,5.23-1.91,8.28,6.64,5.81,13.5,11.35,20.13,16.89,3.19-2.63,6.16-5.86,9.81-7.87,3.87-2.13,9.12-.18,10.3,3.16,1.47,4.17-.54,7.08-4.1,9a32,32,0,0,1-4.49,1.69c8,1.85,14.27-1,18.56-6.89,5.27-7.25,11.54-8.57,20-7C1055.33,652.75,1062.83,655.2,1072.82,652.4ZM304.75,1283.86c.09-8.38-1.66-11.39-8.69-13.42a55.79,55.79,0,0,1-21.68-11.73c-6.19-5.45-12.14-11.19-18-17-4.86-4.9-6.25-5-11.38-.49a34.41,34.41,0,0,1-6.39,4.35c-5,2.71-5.73,4.77-2,9,11.46,12.94,24.72,22.83,42.45,25.81,5.65,1,10.91,4.2,16.38,6.33,2,.79,4.8,2.51,6.12,1.78C303.52,1287.45,304.34,1284.55,304.75,1283.86Zm1411.1,1167.36c2.33-11.68-2.21-18.65-9-23.7a63.57,63.57,0,0,0-18.44-9.36c-16.2-5.19-23.28,2.62-23.6,17.94-.23,10.87,5.17,14.93,15.23,10.84,8.17-3.31,15.34-2.24,23,.9C1706.82,2449.38,1711,2450,1715.85,2451.22Zm-1316.54-4.06c1.34.12,2.09.41,2.64.19,11.27-4.57,22.49-8.33,34.54-2.11,1.34.69,4.58-.67,6-2.05,3.49-3.46,3.1-12.11-.25-17.91-2.66-4.61-7.08-7-12.6-5.93a45.1,45.1,0,0,0-27.12,15.52C399.81,2438.07,397.19,2441.77,399.31,2447.16Zm-108.39-1241c-.56-1.14-1.39-4.13-3.23-6.21a33.29,33.29,0,0,0-8.44-6.83c-13.6-7.66-26.82-15.78-38.18-26.68-1.44-1.38-5.5-2.12-6.82-1.13-3,2.27-1.34,5.6.86,7.74a147.65,147.65,0,0,0,14.07,12.49c7.15,5.37,14.73,10.15,22.07,15.26,3.45,2.4,5.33,5.18,4.58,10-1,6.4,3,9,8.92,6.46C288.82,1215.59,291,1212.48,290.93,1206.2Zm4,1011.38c4.26,1.25,7,2.12,9.82,2.86,9,2.39,17.93,5,27,7,7.88,1.71,15.48,1.07,23-6.19-15-8.34-29.59-11.14-44.9-11.15C304.58,2210.12,299.34,2210.73,294.9,2217.58Zm1522.17.58c-6.93-7.51-8.5-8.5-19-7.92-13.72.75-27.19,3-39.85,11.19,5.27,6,11.34,7.59,17,6.53C1788.79,2225.44,1802.15,2221.74,1817.07,2218.16ZM907.24,1008.72c-12.55-1-33.92,14.81-40.42,28.78,10.27,5,17.82,3.54,24-4.58,4.59-6,9.27-12,13.75-18.15C905.65,1013.28,906.11,1011.33,907.24,1008.72ZM395.52,1197.17c-2.06-1.22-3.65-3-5.11-2.9a38.64,38.64,0,0,0-24.24,10.25c-4,3.76-3.24,10.1.74,13.26,4.16,3.31,9.36,2.32,13.11-2.13s7.93-8.73,11.81-13.16A61,61,0,0,0,395.52,1197.17Zm806.81-275.5c-2.06,7.16-2.3,7.34,1,11.77,3.84,5.22,7.17,10.36,3.14,18,9.71.49,17.73-.53,25.76-4.82-5.87-3.82-11.36-6.69-16-10.58C1211.32,931.9,1207.23,926.82,1202.33,921.67Zm-985,63.59c-.36-1.91-.28-2.71-.63-3.18-5.42-7.2-11.24-14-20.4-16.48-1.53-.41-4.32.5-5.1,1.71s-.59,4.14.37,5.45c5.22,7.18,12.44,11.87,20.78,14.61C213.75,987.82,215.87,985.94,217.37,985.26ZM1629.66,2043.58c-5.79,4.86-8.34,11-6.17,15.48a7.67,7.67,0,0,0,4.36,3.56c1,.3,3.65-1.26,3.79-2.24C1632.46,2054.73,1634.23,2048.77,1629.66,2043.58Zm-1146.8,1.48c-3,6-3.37,11.48.31,17.22C490.59,2057.1,490.48,2052.35,482.87,2045.05Z" transform="translate(0.19)"/><path d="M905.82,2545.84c6.86-.48,9.25,4.32,12.35,8.1,23.35,28.54,52.71,48.42,88.69,56.19,64.33,13.88,118.28-5.32,161.58-54.73,2-2.24,3.85-4.53,6.09-7.16a71.19,71.19,0,0,1,19.9,14.06c20.67,21.1,45.43,35.89,74.1,43.48,7.34,1.94,15.09,2.6,22.7,3.14s15.32.23,23,.26c49.44.13,88.35-21.33,119.69-58.33,1.72-2,3.37-4.12,5.14-6.11.4-.45,1.15-.58,2.81-1.35,33.29,41.49,75.23,66.94,130.54,66.71,55-.24,97.81-24,132-66.65,33.63,40.45,74.56,65.86,128.54,66.65,53.41.78,95.93-20.79,129.6-61.81l1.86,1.14c-.73,6.35-1.34,12.73-2.23,19.06-5.28,37.6-10.77,75.17-15.83,112.8-1,7.52-4.24,12.8-10.17,17.39-19.74,15.27-42,24.19-66.56,27.82-32.49,4.8-64.44,3.11-95.57-8.11-24.36-8.78-45.13-22.69-61.45-43-2.23-2.77-4.8-5.26-7.05-7.7-12.87,11.8-24.43,23.66-37.3,33.87-13.16,10.43-28.93,16.3-45.11,20.79a188,188,0,0,1-50.31,7.2c-16.72,0-33.13-2.82-49.29-7.27s-31.92-10.47-45.16-20.73c-13.05-10.11-24.71-22-37.6-33.71a27.82,27.82,0,0,0-4.58,3.54c-7.58,8.4-14.25,17.8-22.7,25.18a177.9,177.9,0,0,1-30.17,21c-13.46,7.53-28.5,11.06-43.79,13.16-31.77,4.35-63.12,3.32-93.6-7.65-25.66-9.24-47.35-24.17-64.24-45.78-1.59-2-3.48-3.83-6.27-6.88-16.55,20.24-34.92,37.21-58.41,48-23.21,10.61-47.66,15-72.82,14.88-25.46-.16-50.35-4-73.67-15.47a158.36,158.36,0,0,1-58-47.73c-3.06,3.13-5.27,5-7,7.23-25.26,32.31-59.41,48.39-99.12,54.23-23,3.38-45.83,2.19-68.59-2-18.29-3.36-35.58-9.92-50.45-20.78-10.08-7.36-18-17.63-26.83-26.72-4.58-4.74-8.88-9.75-14.23-15.64-13.63,15.73-26.84,30.54-44.46,40.47a174,174,0,0,1-57.2,20.14,180.65,180.65,0,0,1-59.7,0,165.77,165.77,0,0,1-57.15-20.22c-17.45-10.21-30.6-25.28-44.93-40.36-2.62,2.67-4.86,4.55-6.6,6.8-24.68,31.88-58.29,48-97.15,53.94-35.61,5.45-70.44,2.06-103.76-12.56-2.44-1.07-4.87-2.17-7.21-3.44-21.24-11.54-21.23-11.55-24.56-35.58q-8-57.4-15.92-114.81c-.22-1.61-.28-3.24-.6-7.21,5.47,5,9.58,8.67,13.49,12.48,19.24,18.74,41.35,33,67.67,38.83,67,14.91,123.94-1.7,168.53-55.42,1.64-2,3.47-3.81,5.9-6.47,34.35,41.89,76.51,67.1,131.66,67.06S612,2586,646,2543.1c34.18,41.45,75.84,66.21,130.12,67C830.82,2610.9,872.78,2586.89,905.82,2545.84Z" transform="translate(0.19)"/><path d="M166.63,606.77c10.07,0,7.27,8.26,10.86,13.51,2.77-1,6-1.63,8.47-3.3,14.25-9.61,30.34-13.83,47-15.14,11-.86,22,1,29.92,10.49,1.18,1.42,3.15,2.19,5.07,3.47,1.67-1.52,3.46-2.59,4.44-4.16,2-3.13,4.45-5,8.17-4.65,5.6.51,7.79-2.75,8.64-7.53.64-3.58,1.3-7.18,1.68-10.79,1.36-12.75,5-17.32,17.92-18.58,17.76-1.73,34.39,2.59,49.46,12.27,4.19,2.69,8,6.05,12.07,8.89,3.49,2.41,7.2,4.5,11,6.85,2.42,4.45,5,9.34,7.75,14.17,1,1.74,2.27,3.29,3.29,5,13,21.91,4.15,43.42-20.33,51.13-15.2,4.79-28.46.57-40.66-7.63-7.62-5.12-14-12.13-20.86-18.31a36.08,36.08,0,0,0-2.8-2.83c-3.81-2.7-7.08-1.17-7.6,3.64-.57,5.28-.37,10.7-1.49,15.84-1.76,8.11-4.4,16-6.53,24-.79,3-1.21,6.06-1.73,8.76,5.59,2.87,7.7-1.29,10.84-2.59,1.93-.8,5.75-1.35,6.21-.55a10.84,10.84,0,0,1,.94,7.19c-.45,2.12-2.46,3.87-3.62,5.88-1.59,2.76-3,5.61-4.37,8.1,3.61,4,6.3,2.51,8.49.29,2.56-2.59,4.57-5.71,7-8.4,4.93-5.35,9.29-5.75,14.61-.71,4.08,3.88,7.58,8.4,11.16,12.78,7,8.5,14.12,16.88,20.61,25.73,6,8.22,4.25,12.49-5.9,14.52a83.24,83.24,0,0,1-16.84,1.23c-14.61-.11-29.23-.55-43.84-.89-5-.12-9.31,1.51-11.86,5.94-.86,1.48-1.15,4.2-.33,5.46s3.35,1.37,5.15,1.41c1.2,0,2.43-1,3.65-1.5a48.63,48.63,0,0,1,29.31-3.29c7.84,1.51,15.74,2.78,23.55,4.45,6.29,1.35,10.66,5.26,13.08,11.25,8.94,22.08,21.94,41.89,35,61.58,17.69,26.64,35.85,53,54.18,79.18,6,8.61,8.64,17.18,7.69,27.95-2,23.19-2.83,46.51-3.73,69.79-.27,6.94.66,13.94,1.22,20.89.66,8.27-2.11,12.5-10.38,12.33-21-.43-42-1.44-62.36-7-5-1.38-10-5.38-13.49-9.49-5.09-6.06-9.08-13.14-13-20.07-27.57-48.34-53.38-97.61-77-148-4.22-9-7.27-18.59-10.38-28.07-3.27-10-4.5-20.14-.83-30.4a18.51,18.51,0,0,0,1-5.88c.05-3.73-1.81-5.62-5.69-4.74-1.28.29-2.46,1-3.72,1.43-4.57,1.5-8.32.1-9.63-4.42-5.67-19.63-10.73-39.4-1-59.26,1.72-3.5,1.77-6.3-1.27-8.88s-2.66-5.33-1.18-8.88c2.4-5.77,1.29-7.17-5.19-8.6-5.85-1.29-11.77-2.3-17.55-3.84-4.29-1.14-8.38-3.15-8.67-8.4-.28-5.09,3.35-7.78,7.32-9.78,2.65-1.34,5.68-1.9,8.39-3.14,6-2.74,11.88-5.71,17.83-8.56,4.76-2.29,9.39-4.94,14.34-6.74,19.09-6.93,22.58-13.64,14.8-36.67-.57-1.7-3.21-2.7-4.89-4-1.16,1.8-3,3.48-3.33,5.43-.7,3.9-.28,8-.93,11.92s-.82,8.64-5.91,9.32c-4.34.57-6.17-3.23-8-6.44-1-1.74-1.61-3.79-2.93-5.2-1.47-1.56-3.67-3.65-5.34-3.48s-3.67,2.64-4.38,4.54c-1.39,3.71-1.69,7.83-3,11.58a27.22,27.22,0,0,1-4.64,8.67c-3.53,4.1-8.11,4.25-12.46,1-1.58-1.19-2.73-3-4.31-4.14-4.32-3.24-7.72-1.77-8.15,3.6-.24,3,.49,6,.13,9-.82,6.77-6.21,9.75-11.29,5.38-12.54-10.8-23-23.37-24.06-41-.62-10.29-.72-10.55-9.62-6.44-2,.91-6.58.74-6.76.13-.84-2.91-1.84-6.94-.46-9.09C158.23,615.75,163,611.05,166.63,606.77Z" transform="translate(0.19)"/><path d="M1771.49,1676.22c0-3.52,0-7,0-10.57q.85-107,1.75-213.94c.31-31.31.44-62.65,2-93.91.92-18.92,4.61-37.68,6.6-56.56,5.7-54,12-108,16.42-162.07,2.82-34.82,2.89-69.87,3.77-104.83.65-25.65.67-51.31.87-77,.49-65-2.34-129.89-10.8-194.44a15.31,15.31,0,0,1,.75-8c1.42,3.26,3,6.45,4.24,9.78,31.11,83,52.95,168.33,63.77,256.47a1479.83,1479.83,0,0,1,10.5,209.46,1098,1098,0,0,1-23.23,202.28c-13.43,64.68-30.33,128.41-52.81,190.58-5.89,16.29-12.49,32.32-18.85,48.43a28.5,28.5,0,0,1-2.9,4.59Z" transform="translate(0.19)"/><path d="M417,628.6l-14.86-16L386.81,596c1.75-.48,3.49-.82,5.15-1.42,9-3.23,18.53-5.58,27-9.95,33.72-17.45,67.15-35.48,100.63-53.39,39.36-21,78.75-42,118-63.32q101.92-55.25,203.66-110.81c14.34-7.8,28.81-15.38,42.9-23.61C896.75,326.14,909,318,921.3,310.17a21.1,21.1,0,0,0,3.27-3.26L923.52,305c-3.18,1.15-6.41,2.16-9.52,3.47-57.14,24.1-111.45,54-166.67,81.95-41,20.77-82.12,41.39-122.26,63.73-20.26,11.27-42.14,18.16-62.84,28.07-51.72,24.74-102.62,51-151.92,80.27-11.12,6.61-22.21,13.46-31.09,24.57l-12.15-14c4.63-2.51,8-4.47,11.53-6.23q75.43-38,150.89-75.9Q650.85,429.75,772.17,368.5q84.8-42.69,169.74-85.09c27.69-13.9,55.26-28,83-41.79a43.58,43.58,0,0,1,15.07-4.69c13.9-1.21,27.87-1.53,42.84-2.26-.83,2.7-1.19,4.85-2.12,6.71-6,11.91-12.13,23.72-18.06,35.65a21.33,21.33,0,0,1-9.51,9.76q-105.72,56.6-211.34,113.4-100,53.57-200.05,106.92c-32.05,17.06-64.53,33.32-96.43,50.65C504.37,580,463.79,603,423,625.66,421.32,626.61,419.52,627.39,417,628.6ZM658.86,483.88c.09-4.93-2.07-6.89-5.57-6.24a32.64,32.64,0,0,0-9.23,3.5q-62.48,33.37-124.86,66.91c-24.3,13.08-48.5,26.36-72.72,39.58-3.81,2.08-8.17,4.08-6.3,9.7,1.26,3.79,5.1,3.9,12.1.31,12.73-6.51,25.48-13,38.06-19.78Q569,535.53,647.47,493a52.72,52.72,0,0,0,7.63-4.71A24.92,24.92,0,0,0,658.86,483.88Z" transform="translate(0.19)"/><path d="M1844.42,1571.55c2.06,10.08,4,20.17,6.19,30.23,5.61,25.88,13.38,50.89,28.65,73a19.84,19.84,0,0,1,3.24,11.16c-2.29,71.29-5.39,142.53-20.72,212.54-6.14,28.07-14.57,55.43-27.11,81.38-1.51,3.12-3.28,6.1-4.92,9.15l-2.09-.41c-.65-3.79-1.55-7.55-1.9-11.36-5-54.07-10.45-108.11-14.55-162.25-2.23-29.53-2.21-59.23-3-88.86q-.83-32.47-.91-64.95c0-4.08,1-8.79,3.16-12.14C1832.27,1615.56,1834.65,1610.26,1844.42,1571.55Z" transform="translate(0.19)"/><path d="M1852.25,858.56c6.56,14.79,13.46,29.43,19.63,44.38,29.92,72.45,48.74,147.93,60.48,225.26A1646.37,1646.37,0,0,1,1950.69,1337q1.37,58.41,2.51,116.82a68.35,68.35,0,0,1-2.78,21.29c-.87-3.27-1.9-6.51-2.6-9.82-11.62-54.73-22.67-109.59-35-164.17-8.2-36.37-18.25-72.31-27.23-108.51a76.7,76.7,0,0,1-2.5-18.66c.32-58-1.38-115.86-8-173.52a1098.07,1098.07,0,0,0-22.53-128.86c-1-4.07-1.72-8.19-2.58-12.29Z" transform="translate(0.19)"/><path d="M1921.95,1804.87c-4.9-31.57-9.26-63.25-14.83-94.7-11.22-63.33-25.24-126.06-43.18-187.86-.84-2.88-1.49-5.82-2.43-8.66-4.84-14.61-4.68-29-1.37-44.18,8.74-40.08,12.71-80.91,16.74-121.69,2.09-21.21,4.13-42.43,6.26-63.64a15.43,15.43,0,0,1,3-7.95c1,2.58,2.11,5.1,2.9,7.74,19.8,65.67,30.91,132.9,36.47,201.17,4.85,59.51,5.21,119.12,4,178.72-.89,45.25-3.78,90.45-5.82,135.68a55.44,55.44,0,0,1-.81,5.58Z" transform="translate(0.19)"/><path d="M1906.36,877.59c-2.5-3.3-4.84-6.35-7.12-9.43-16.86-22.74-33.63-45.53-50.61-68.18a85,85,0,0,0-12-13.39c-13.22-11.45-21.19-26-28-41.88-21.07-49-42.09-97.94-58.61-148.7-5.36-16.47-10.58-33-15.82-49.49-1.09-3.43-1.94-6.94-3.18-11.4,4.82.8,6.59,4,8.76,6.57,23.6,27.67,45.54,56.62,64.91,87.39,14.72,23.38,28.77,47.21,42.36,71.27,15.95,28.23,27.64,58.43,37.62,89.18,8.22,25.31,15,51.1,22.27,76.71a48.73,48.73,0,0,1,1.13,8.88C1908.13,875.58,1907.45,876.09,1906.36,877.59Z" transform="translate(0.19)"/><path d="M665.68,841.95c-4.65-.88-9.08-1.16-13.11-2.58-10.69-3.77-21.69-2.89-32.65-2.88-1.64,0-3.64-.1-4.86.74-2.3,1.58-5.17,3.51-5.87,5.86-.52,1.75,1.51,5,3.33,6.51,3.06,2.48,6.83,4.08,10.32,6,1.46.8,3,1.47,4.47,2.24,12.65,6.58,13.2,10.44,1.44,18.65-22.38,15.63-45.09,30.78-67.7,46.08a59.26,59.26,0,0,1-7,3.89c-4.48,2.22-8.47,1.37-11.62-2.47-2.11-2.57-4-5.31-5.87-8.06q-18.5-27.25-36.94-54.55c-3-4.41-6.37-8.64-8.62-13.41-3.92-8.33-.44-13.59,8.86-14,4.31-.18,8.67.69,13,.35,2.35-.19,6.38-1.78,6.48-3a9.8,9.8,0,0,0-3-7.45c-5.69-4.57-12-8.36-18-12.54a96,96,0,0,1-8-6c-6.57-5.67-7.54-10.84-3.4-18.57a53.08,53.08,0,0,1,5.07-7.41c6.75-8.66,12.43-9.33,19.36-.61,8.88,11.17,16.65,23.24,24.79,35,2.46,3.55,4.14,7.73,7,10.9,2,2.19,5.31,4.22,8,4.22,1.48,0,3.55-4.24,4.3-6.86,1.44-5.1,1.67-10.56,3.26-15.6,2.07-6.54,7.14-7.4,10.71-1.64,3.11,5,5.09,10.78,7.23,16.35,1.79,4.65,2.69,9.66,4.69,14.2,2.34,5.3,5.56,6.14,10.39,3a121,121,0,0,0,10.28-7.93c10.8-8.77,23-11.67,36.51-8.49,11.34,2.66,22.66,5.43,34,8.18,1.29.31,2.89.45,3.71,1.29,1.26,1.29,2.58,3.07,2.71,4.73.09,1.1-1.63,3-2.92,3.44A99.9,99.9,0,0,1,665.68,841.95Z" transform="translate(0.19)"/><path d="M247.24,1424.27c3.32-1.92,6.67-3.78,9.95-5.76,10.53-6.35,20.95-12.91,31.59-19.08,11.81-6.84,24.07-12.92,35.66-20.1,13.66-8.46,28.56-12.53,44.21-14.58,3.72-.49,8.22-.69,9.38,3.45.72,2.57-.8,6.53-2.62,8.85-2.83,3.61-6.77,6.34-10.22,9.46-7.4,6.7-14.78,13.42-22.2,20.1a24.45,24.45,0,0,0-8.24,18.65c0,8.61.77,17.23,1.23,25.85.05,1,.35,2,.37,3,.12,6.34-3.66,8.92-8.84,5.47-5-3.3-9.36-7.45-13.89-11.37-2.51-2.18-4.64-4.8-7.16-7-5.69-4.87-9.1-4.87-15.05-.32-6.61,5.06-12.86,10.67-19.87,15.1-12.72,8-26.47,13.29-41.62,7.89a48.54,48.54,0,0,1-16-9.6c-11.24-10.26-12-22.53-2.74-34.78,2.78-3.68,6.63-6.54,9.53-10.14,1.29-1.6,2.44-4.47,1.84-6.12s-3.35-3-5.35-3.37c-5.56-1-11.27-1.07-16.82-2a41.69,41.69,0,0,1-11.37-3.51c-6.68-3.35-7-8.56-.94-13.11,7.91-5.92,17.12-9.08,26.75-10.4,18.45-2.54,36.93-4.87,55.47-6.59,8.24-.76,16.64,0,24.95.45,3.87.21,8.67.2,10,5,1.36,5-2.93,7-6.4,8.89-8.52,4.52-17.07,9-25.83,13-12.05,5.52-19.43,15.85-27.25,25.72-.94,1.19-.4,3.56-.55,5.38Z" transform="translate(0.19)"/><path d="M1608,679.19q1,7.71,2.07,15.41c6.44,48.53,12.13,97.18,19.56,145.57,5.87,38.25-6.84,70-29.74,99.16-1.55,2-3.83,3.37-6,5.24-1.76-1.54-3.23-2.43-4.17-3.7-18.4-24.9-29.38-52.35-26.25-83.79.83-8.37,4-17,7.95-24.45,6.07-11.41,10-23,10.86-35.94a114.74,114.74,0,0,1,4.71-25.47c4.51-14.87,6-30,5.89-45.37C1592.81,711.67,1598.25,692.73,1608,679.19Z" transform="translate(0.19)"/><path d="M1702.68,323.08l19.69-56.76,1.76.26,19.52,57h61.24c-8.19,8.74-16.69,13.65-24.34,19.56-7.87,6.08-15.93,11.91-24.59,18.36l17.36,56.94-1.59,1.27-48.54-34.36-49.08,34.78-1.6-.93,17.7-57.77-49.74-37C1662.47,323.16,1682.18,324.17,1702.68,323.08Z" transform="translate(0.19)"/><path d="M1547.84,266.79l19.38,56.66h61.32c-2.86,3-4.09,4.67-5.7,5.87-12.27,9.17-24.48,18.44-37,27.25-4.86,3.42-6.11,6.75-4.16,12.51,5.14,15.12,9.65,30.45,14.36,45.71a57.64,57.64,0,0,1,.94,6l-50.08-35.5L1498,419.93l-1.72-.91,17.56-57.67L1466.18,326l.5-2h59.39l19.72-57.17Z" transform="translate(0.19)"/><path d="M1548.25,867.72c.84,5.93,1.64,11.14,2.31,16.37,2.74,21.36,7.87,41.75,20.61,59.82,3.18,4.51,4.35,11.23,4.48,17,.38,17.91-3,35.27-12.35,50.79a60.74,60.74,0,0,1-13,14.89c-7.31,6.1-11.37,5.51-16.16-2.66-6.89-11.75-14.1-23.6-18.76-36.29-6.52-17.76-10.85-36.33-16.06-54.57-1.86-6.52-.16-11,6.12-14.92,12.49-7.77,18.62-20.43,23.25-33.92C1532.4,873.4,1535.29,870.93,1548.25,867.72Z" transform="translate(0.19)"/><path d="M1989.81,1298.53c-1.5-1.19-2.51-1.6-2.84-2.31-6.73-14.5-13.85-28.85-19.85-43.65-2.56-6.33-3.47-13.56-3.93-20.47-2.88-43.26-7.4-86.31-16.07-128.83-2.86-14-6.23-28-9.32-41.95a26.77,26.77,0,0,1-.6-10.52c1.59,2.11,3.35,4.12,4.73,6.36a302,302,0,0,1,37.5,92.16c10.78,47.44,13.78,95.5,11.28,144A48.44,48.44,0,0,1,1989.81,1298.53Z" transform="translate(0.19)"/><path d="M1962.37,1035.45c-2.09-2.39-4.37-4.63-6.23-7.19-10.19-14-20.41-27.93-33.54-39.56a30.07,30.07,0,0,1-8.39-14.4c-8.45-33.09-21.6-64.41-34.89-95.7a11.94,11.94,0,0,1-1.06-7c1.6,1.84,3.3,3.6,4.79,5.53,7.95,10.28,15.73,20.7,23.82,30.86a68.92,68.92,0,0,0,10.43,10.72c2.37,1.92,5.78,2.54,8.73,3.75,1-2.94,2.57-5.81,3-8.83s-.42-6-.55-8.95a44.48,44.48,0,0,1,.43-5.15C1941.58,915.58,1964.19,1003.69,1962.37,1035.45Z" transform="translate(0.19)"/><path d="M127.5,747.77A36.4,36.4,0,0,1,100,732.17c-4.86-6.83-4.64-14.32,0-20.36,5.71-7.46,15.46-11.3,22.72-8.79,2.18.75,4.16,2.11,6.34,2.88a6,6,0,0,0,7.72-2.72c.35-.56.61-1.18,1-1.75,7.68-12.35,21-12.6,29.34-.55,2.83,4.11,2.29,7.91-.68,11.87-5,6.6-9.79,13.32-14.32,20.22C145.7,742.65,138.19,747.61,127.5,747.77Z" transform="translate(0.19)"/><path d="M1328.91,136l18.19-36.2c5.67-11.29,5.67-11.29,21-9.2.25,22.24.44,44.7-.23,67.85H1352V118.6l-2.33-.59c-2,3.67-4.11,7.29-6,11-4,7.84-7.63,15.86-11.9,23.53-1.42,2.55-4.39,6-6.5,5.91s-5-3.6-6.37-6.21c-6.12-11.26-11.83-22.73-18.7-34.12-2.24,13-.77,26.17-1.78,40.13l-9.87.55V90.14c3.24-.26,6.39-.42,9.52-.79,4.76-.56,7.36,1.79,9.35,5.87,5.45,11.2,11.13,22.29,16.81,33.38C1325.33,130.8,1326.87,132.8,1328.91,136Z" transform="translate(0.19)"/><path d="M890.58,157.86c-10.94,2.95-18.61,1.46-24.25-8.22-4.53-7.76-10.66-14.58-17.13-23.23-4.13,11.61-.42,22-3.12,32.12H831.78c-2.15-7.92-2.58-55.48-.47-68.75,11.41-.62,23-1.18,34.59.93,8.09,1.48,14.67,5.28,16.59,14,2,8.94-2.78,14.64-10.11,18.8-1.21.69-2.33,1.54-4.48,3,4.13,5.61,8,10.81,11.8,16.06C883.27,147.47,886.76,152.47,890.58,157.86Zm-42.94-37c11.71.88,17.59-3.23,17.69-12.09.1-9.2-5.14-13-17.69-12.36Z" transform="translate(0.19)"/><path d="M674.14,158.44c-5.87,3.1-8.72-.46-11.67-3.82q-13.82-15.72-27.65-31.43c-2.65-3-5.39-5.92-9.53-10.45-1.92,16,0,30.47-1.38,45.5l-8.16.82c-2.76-3.09-3.39-51-1.28-68.43,6.28-3.08,10.65-.47,14.94,4.47,10.54,12.16,21.43,24,33.9,37.91,1.73-15.43,0-28.78,1.31-42.73h9.52Z" transform="translate(0.19)"/><path d="M1452,158.2V91c6.11-3.23,10.49-1.44,14.6,3.3,8.66,10,17.6,19.69,26.4,29.54,2.16,2.42,4.21,4.93,6.31,7.41l2.2-.72V90.22l10.37-.63v68.85c-4.57,3.08-7.66.35-10.73-3.16q-14.5-16.56-29.14-33c-2.41-2.71-4.92-5.33-8.9-9.64-1.94,16.1,0,30.53-1.37,45.54Z" transform="translate(0.19)"/><path d="M1090,157.83c-11.08,2.91-18.93,1.67-24.39-8.1-3.37-6-8.09-11.33-12.38-16.82-1.41-1.8-3.38-3.16-7-6.43v31.93H1030c-1.29-22.58-.54-45.08-.47-68.78,12.61-.26,24.22-1.14,35.8,1.12,8.07,1.57,14.42,5.43,16.4,14.15,1.72,7.57-1.15,12.67-10.31,18.65L1067,126.4ZM1046.75,96.1v25.14c12.15.13,18.65-4.74,18.28-13.12S1059.07,95.88,1046.75,96.1Z" transform="translate(0.19)"/><path d="M455.71,131.64V90.42l10.14-1v69c-5.13,3.1-8.09,0-11.11-3.43-10.38-11.88-20.87-23.66-31.27-35.53-1.67-1.91-3.07-4-4.6-6.08l-2.33,1V158L406,159.17c-1.4-23.18-.59-45.66-.48-68,6.6-3.52,11-1.58,15.07,3.11,8.19,9.41,16.54,18.68,25,27.88C448.21,125.1,451.3,127.57,455.71,131.64Z" transform="translate(0.19)"/><path d="M1217.36,149.83c.21-2.37.52-4.52.58-6.67.09-3.61,0-7.23,0-11.05l-11.23-2.84.17-2.65c8.74-2.84,17.83-1,27.56-1.16v26.19c-13.87,8.89-29.32,10.09-45.06,6.51-16.71-3.8-26.73-16.1-27.25-31.56-.59-17.65,8.82-30.95,25.8-36.45,18-5.81,35.09-.6,46.23,14.52l-5.31,5.57c-16.74-17.15-33.19-22.05-46,3-5.82,11.41-1.88,26.31,6.75,33.36C1197.93,153.43,1207.14,155.08,1217.36,149.83Z" transform="translate(0.19)"/><path d="M1707.26,124.3c-3.15-3-5.72-5.06-7.85-7.51-6.29-7.23-5.43-16.19,2-22.26,8.52-7,24.25-7,32.89.07,6.84,5.57,7.46,12.3,1.45,19-2.42,2.69-5.38,4.89-9.39,8.48,3.57,3.11,7.59,5.81,10.57,9.37,7.44,8.89,6.07,18.11-3.63,24.34s-20.27,6.29-30.33.82c-10.24-5.57-11.65-16.25-3.75-24.9C1701.39,129.27,1704,127.24,1707.26,124.3Zm7.27,4.31c-6.75,6.37-8,13.11-4.91,20.46,2.35,5.5,8.56,7.25,13.82,4.57,5.52-2.81,7-8.16,2.78-13.7C1723,135.74,1718.62,132.48,1714.54,128.61Zm5.66-9.94c2.61-5.65,5-9.62,6.25-13.92,1.09-3.86-1-7.29-4.76-8.86-4-1.65-8.59-1.82-10.85,2.12-1.55,2.69-2,7.32-.76,10C1711.81,111.6,1715.72,114.15,1720.2,118.67Z" transform="translate(0.19)"/><path d="M604.63,158.74H587.83l-9.39-18.49H552l-9.54,18.26h-9.66c.06-1.28-.19-2.45.21-3.31,9.71-20.55,19.41-41.11,29.4-61.53a10.4,10.4,0,0,1,6.06-5.09c1.53-.36,4.72,1.94,5.58,3.79C584.19,113.87,594,135.51,604.63,158.74ZM576.16,133.2l-10.62-22.65-10.8,22.65Z" transform="translate(0.19)"/><path d="M1152.1,95h-35.63v23.42c5.26,0,10.28-.32,15.23.1,4.29.36,9.48-2.19,13.49,3.76-9.51,3.88-19.11.28-28.64,2.76v27h32.81c2,5.7-.25,7.06-4.28,7.06l-31.93,0H1099.5V91.28c5.49-1.74,44.07-3,48.79-1.29C1149.32,90.36,1149.89,92,1152.1,95Z" transform="translate(0.19)"/><path d="M781.9,117.3c9.4,1,18.29,1.87,27.17,2.88.17,0,.2,1.3.46,3.26H782v28.48h33.29l1.12,2.6c-1.34,1.47-2.65,4.18-4,4.21-15.66.3-31.33.19-48.38.19V91.53c6-1.93,44.25-3.26,49.46-1.65,1.06.33,1.74,1.91,3.85,4.4-12.5,2.17-23.7.24-35.41,1.57Z" transform="translate(0.19)"/><path d="M1436.8,95h-33.41v22.31c9.21.88,18.11,1.71,27,2.65.2,0,.28,1.29.66,3.28h-27.58v28.49h32.4c2.3,5.31.74,7.18-3,7.21-15.32.09-30.64,0-46.71,0V89.7c16.51,0,32.52,0,48.53.12.92,0,1.82,1.81,2.73,2.78Z" transform="translate(0.19)"/><path d="M936,159V91.25c6.44-2,44.52-2.89,48.82-.94.91.41,1.17,2.24,2.44,4.9H953v21.95c9.12,3.21,19.34-1,28,4.12-8.83,4.7-18.43,1.35-27.91,3.63v27h32.47c1.15,4.17,1.25,7-3,7C967.23,159.07,951.92,159,936,159Z" transform="translate(0.19)"/><path d="M534.19,95.3H501.54v21.84c8.92,3.4,19.23-1.26,30.36,4.2-11.17,5-20.81,1-30.82,3.89v33H484.45V90.36c16.12,0,31.72,0,47.31.12C532.22,90.48,532.66,92.19,534.19,95.3Z" transform="translate(0.19)"/><path d="M710.94,158.3V95.87l-24.32-1c4.24-6.48,4.24-6.5,55.87-5.47,3.48.07,8.33-1.72,9.31,5.46H728.57c-1.07,11.23-.42,21.71-.54,32.14-.11,10.18,0,20.36,0,31.29Z" transform="translate(0.19)"/><path d="M1549.1,95.27H1525.6l-.93-2.27c1.62-1.19,3.22-3.4,4.85-3.42q27.54-.37,55.08,0c1.83,0,3.65,1.8,5.47,2.76l-.63,2.5-23.38,1v62.21c-3.45.42-5.87.89-8.3,1s-5.05-.28-8.65-.52Z" transform="translate(0.19)"/><path d="M1675.4,91.42c-2.62,10-2.62,10-11.17,10.17-3.29.07-6.69-.45-9.85.22-2.27.48-4.22,2.47-8,4.87,16.89,5.27,30.4,11.09,29.93,29.63-.25,9.95-8.34,18.76-19.79,22.39-11.83,3.75-20.45,1.88-26.37-5.71,5.31-6,5.71-6.36,14.51-2.34,5.26,2.4,9.76,2.65,14.17-1.27a15.34,15.34,0,0,0,4.06-16.11c-2-5.63-6.53-9-11.8-10.7-5.84-1.93-12-2.86-19.49-4.54l14.15-26.62Z" transform="translate(0.19)"/><path d="M1253.78,90h15.65v68.17h-15.65Z" transform="translate(0.19)"/><path d="M901.14,89.93h14.44c2.36,7.66,3.06,50,1.07,68.24H902C899.9,150.93,899.21,108.92,901.14,89.93Z" transform="translate(0.19)"/><path d="M386.48,158.64H371.64V90.07h14.84Z" transform="translate(0.19)"/><path d="M177.71,681.09c-.11,6.3-3.74,8.62-7.83,5.52a34.66,34.66,0,0,1-8.51-9.48,205.12,205.12,0,0,1-11.44-21.82c-.82-1.83,0-5.73,1.52-6.91s5.55-1.11,7.05.14C169,657.29,174.85,668.95,177.71,681.09Z" transform="translate(0.19)"/><path d="M352.56,1359c-10.22-3.42-20-6.47-29.61-10-3.16-1.17-6.18-4.21-3.94-7.73,1.15-1.81,5.45-3.2,7.61-2.52,9.45,3,18.72,6.66,27.86,10.54,1.62.69,3.26,3.66,3.11,5.43C357.45,1356.12,354.65,1357.32,352.56,1359Z" transform="translate(0.19)"/><path d="M527.2,1011.17c-.79,1.31-1.84,5.25-4.18,6.3s-6.62,0-8.79-1.72a26.54,26.54,0,0,1-7.66-9.94c-2.72-6.37,2.38-11.89,9.28-10.77C522.13,996,527.17,1002.4,527.2,1011.17Z" transform="translate(0.19)"/><path d="M1472.92,1893a92.75,92.75,0,0,0,9.83,2.88c14.16,2.57,27.8,6.49,40.76,13,47.46,23.68,46,86.15,15,113.32-11.2,9.8-23.62,17.43-37.86,21.63-33.85,10-67.63,9.68-101.12-1.87a101.44,101.44,0,0,1-31.91-18.27c-32.71-27.23-32.74-74-.19-102,15.84-13.6,34.51-21.06,54.65-25.44,3.37-.73,6.67-1.79,10-2.7l.27-2.64c-2.48-1-4.91-2.18-7.46-3-11.11-3.43-22.63-5.84-33.31-10.27-49.69-20.58-48.72-77.89-15.38-105,9.68-7.86,20.11-14.3,32-18.12,30.19-9.73,60.3-9,90.16,1.56a85.42,85.42,0,0,1,30.19,19.05c27.37,25.94,26.86,81.65-17.13,101.48-9,4.07-18.75,6.69-28.17,9.89-3.31,1.13-6.71,2-10.06,3Zm22.29,87.85c-1-13.51-1.37-23.16-2.49-32.73-1.53-13-4.36-25.58-11.45-36.88-13.11-20.91-41.53-22.25-56.43-2.58-6.36,8.4-10.08,18-12.17,28.2a164.64,164.64,0,0,0,.66,70.35,83.26,83.26,0,0,0,10.52,24.54c11.58,18.77,46.46,22.72,60.19-2.58,2.68-4.93,5.39-10.18,6.44-15.6C1492.77,2001.52,1494,1989.3,1495.21,1980.83Zm-79.11-162.27c1.78,12.83,3.3,26.7,5.77,40.4a42.4,42.4,0,0,0,11.91,22.7c13.84,13.78,35.05,10.41,43.09-7.34a78.42,78.42,0,0,0,5.82-22c2.58-19.94,1.05-39.89-1.94-59.68-1.6-10.58-4.55-20.87-10.91-29.75-9.43-13.18-26.68-14.53-38.17-3.11a39.55,39.55,0,0,0-11,22C1418.69,1793.49,1417.67,1805.42,1416.1,1818.56Z" transform="translate(0.19)"/><path d="M1154.57,1991.46c0-12.64-.17-23.56,0-34.48.44-23.64,1-47.28,1.66-70.92a145.84,145.84,0,0,1,1.06-16.94c1.83-12.71,7.71-18.27,20.69-18.41,29.31-.31,58.63-.08,87.95-.08,5,0,10,.16,15-.15,8.82-.54,10.71-2.21,13.39-10.6.78-2.43,1.74-4.8,3.31-9.11,1.09,3.47,2,5,1.94,6.43-.77,15.62-1.25,31.28-2.76,46.83-.94,9.71-3.63,11.82-13.33,13.15a136.38,136.38,0,0,1-17.94,1.1c-27,.11-54-.27-80.95.15-21.81.34-19.1,1.2-20.2,18.33-1.15,17.94-1.17,35.95-1.51,53.93,0,2.14,1,4.29,1.76,7.58l10.4-5.07c35.51-17.4,71.17-18.37,106.69-.33,31.42,16,44.27,42.85,43.61,77-.67,35.15-17.72,60.69-47.33,78.33-35.33,21-72.42,25.81-111,10.08-7.25-3-13.87-7.93-20.07-12.86a35.45,35.45,0,0,1-13-23c-3.21-20.57,16.13-37.48,36-31.17,8.21,2.61,13.73,8.27,15.19,17,1.56,9.31-1.11,17.27-9.28,22.61-3.32,2.17-7.15,3.54-10.68,5.4-7.78,4.11-8.67,9.67-1.09,14.15,7.3,4.32,15.55,8.11,23.82,9.52,26.57,4.54,51.48-10.38,63.18-36.93,9.83-22.3,11.15-45.78,8.23-69.61a119.9,119.9,0,0,0-4.46-21.48c-9.23-29.17-35.3-44.07-65.08-36.65-8.9,2.22-17.21,6.92-25.7,10.69C1161.1,1987.28,1158.42,1989.2,1154.57,1991.46Z" transform="translate(0.19)"/><path d="M798.31,1300.94c-.24,3.88-.65,7.48-.65,11.07q0,61,0,121.93c0,1.67,0,3.33.05,5,.57,11.61,4.61,16,16.33,17.39,5.61.67,11.28.84,16.91,1.42a11.87,11.87,0,0,1,6.14,2.46c-15.49,4.06-31.14,1-46.65,1.5s-31.3.59-47,.7c-15.83.11-31.66,0-49.18,0,3.68-5.72,7.84-5.18,11.45-5.73,4.93-.74,9.92-1.1,14.8-2.06,6.39-1.24,9.67-5.5,10.09-11.92.18-2.66.18-5.33.18-8q0-127.93,0-255.86c0-17.35-3.13-20.62-20.74-22.19-4.29-.38-8.58-.73-12.85-1.21-.46-.05-.83-.9-1.82-2.05,1.61-.93,3-2.28,4.58-2.51a63.15,63.15,0,0,1,9-.24c39,0,78-.38,116.94.18,16.26.23,32.56,2,48.72,3.94s30.78,8,42.57,20a62.89,62.89,0,0,1-3.13,91c-14.7,13-32.21,19.79-51.07,23.64-8.15,1.66-16.42,2.73-24.6,4.28-2.32.44-4.49,1.63-6.73,2.48l.18,2.46c3,.64,6,1.46,9.12,1.87,14.24,1.94,28.21,4.64,41.35,10.89,15.78,7.51,26.89,19.38,34,35.11,7.23,16,10.2,33,12.29,50.26,1.67,13.86,4,27.66,6.53,41.39a31.41,31.41,0,0,0,12.7,19.74c5.87,4.35,10.95,4,17.47-1.58a77.48,77.48,0,0,0-5.85-6.24c-4-3.44-5.57-7.4-3.43-12.41,1.92-4.51,6.26-6.5,12.56-6,5.23.39,8.61,2.85,10.13,8,3.35,11.45-2.45,24-13.92,27.23a75.41,75.41,0,0,1-22.65,2.47c-32-1.2-56.94-15.34-73-43.21-4.39-7.59-7.07-16.56-8.73-25.24-2.62-13.71-3.15-27.82-5.65-41.56-2.07-11.4-4.54-23-8.91-33.66C837.84,1306.37,820.26,1297.47,798.31,1300.94Zm.06-8c11.7,2.24,22-.3,32.07-3.64,13.32-4.42,23.31-13.15,28.59-26.17,10.22-25.23,11.75-51.31,3.75-77.28-7.52-24.41-27.52-30.36-46.75-29-11.12.78-16.12,6.12-17.21,17.13-.69,6.95-1.1,14-1.14,20.93-.13,29-.1,58-.06,86.94C797.63,1285.35,798.09,1288.91,798.37,1292.9Z" transform="translate(0.19)"/><path d="M679.64,1462.24q-67.24,0-134.48-.05c-1.07,0-2.13-.79-3.21-3,2.34-.48,4.67-1.12,7-1.39,3.63-.42,7.37-.19,10.91-.93,12.61-2.62,17.86-6.38,17.55-19.85-.17-7.3.82-14.62.82-21.93q.11-117.44,0-234.87c0-20.45-3.25-23.72-23.55-24.48-3.48-.13-6.93-.85-11.47-1.44,3.7-4.83,7.6-3.54,10.92-3.51,23.64.24,47.27.88,70.9,1,14.3,0,28.61-.79,42.92-1,3,0,6.75-1.51,9.59,3.6-3.27.54-6,1.07-8.74,1.43-4.61.61-9.32.73-13.83,1.77-7.66,1.77-9.75,4.49-10.54,12.45-.26,2.64-.21,5.32-.21,8q0,125.93,0,251.86a79.1,79.1,0,0,0,.88,12.93c1.47,8.83,3.87,11.18,12.85,12.76,5.57,1,11.24,1.35,16.84,2.16a31.79,31.79,0,0,1,5.12,1.63Z" transform="translate(0.19)"/></svg>