<svg xmlns="http://www.w3.org/2000/svg" width="144.89" height="144.74" viewBox="0 0 144.89 144.74"><title>Driver</title><path d="M72.62,0c39-.74,72.43,32.5,72.27,72.69-.15,39.12-33,72.12-72.62,72-39.36-.09-72.5-33-72.27-72.88C.23,32.69,33-.86,72.62,0Zm55,49.28A30.22,30.22,0,0,0,126,44.68a58.64,58.64,0,0,0-10.45-14.52C100.17,15.23,81.86,9.42,60.73,13.35,41.65,16.9,28,27.84,18.78,44.76a8.67,8.67,0,0,0,1,10.17c2.68,2.63,6.65,2.93,10.59,1a106.24,106.24,0,0,1,10.93-4.81c12.14-4.35,24.55-6.41,37.55-5.23,9,.82,17.71,2.46,26,5.92,3.52,1.46,6.9,3.29,10.44,4.71C122.53,59.42,127.92,54.54,127.61,49.3ZM56.4,130.18c6.13.19,9.15-3.37,8.36-8.33-.13-.82-.3-1.63-.37-2.45-.76-9.86-5-18.08-11.6-25.28C44.65,85.19,34.23,81,22.51,79.68a7.36,7.36,0,0,0-7.92,7.17,12.27,12.27,0,0,0,.64,3.88c5.6,17.28,17,29.33,33.39,36.86A62.7,62.7,0,0,0,56.4,130.18Zm31.16.06c.66-.16,2.12-.41,3.53-.86,15.87-5.05,27.32-15.34,35-29.9A51.88,51.88,0,0,0,130,89.8c1.43-4.89-.83-8.78-5.68-9.86-1.67-.37-3.56.2-5.35.42-13.3,1.7-23.58,8.33-31.25,19.19-5,7.12-7.17,15.23-7.88,23.77C79.52,127,82.9,130.2,87.57,130.24ZM86.27,72.4c.62-7.49-7.33-14.11-13.82-14.11-6.87,0-14,6.9-13.91,13.58A14.35,14.35,0,0,0,72.17,86.15C79.69,86.52,86.85,78.92,86.27,72.4Z"/></svg>