<svg xmlns="http://www.w3.org/2000/svg" width="120.15" height="139.05" viewBox="0 0 120.15 139.05"><title>Engineer</title><path d="M465.86,480.07c-.29-3.37,1.24-5.06,3.92-6.66A87.76,87.76,0,0,1,518.2,461c7.88.21,8.64-1,13.44-4.31,1.05-.74,2.18-1.49,3.26-2.26.71-.5,1.36-1.07,2.44-1.94A92.63,92.63,0,0,0,519.07,450a101.26,101.26,0,0,0-24.74,2.09A102.39,102.39,0,0,0,457,468.88a4,4,0,0,0-2,3.68c.17,5.81.16,11.63.22,17.45q0,11.5,0,23v22.72c3-1.29,5.77-2.45,8.5-3.58a3.14,3.14,0,0,0,2.31-3.29Z" transform="translate(-454.91 -449.92)" style="fill:#121210"/><path d="M566.73,495.71" transform="translate(-454.91 -449.92)" style="fill:#191917"/><path d="M574.84,513l-10.47,0q0,9,0,18h10.45Q574.83,522,574.84,513Z" transform="translate(-454.91 -449.92)" style="fill:#1e1b13"/><path d="M574.83,531H564.38c-.08,2.13-.18,6.37-.18,6.37,0,2.75-.38,2.72-2.22,4.57l-44.68,32.24c-1.87,1.2-2.18,1.51-4.74-.12l-3.23-2.34-10.93-7.89-4.3,10L515,589l59.11-43.48a2,2,0,0,0,.82-1.64Z" transform="translate(-454.91 -449.92)" style="fill:#1e1b13"/><path d="M564.37,511.12V513l10.47,0V497.49l-8.76,9.32A6.3,6.3,0,0,0,564.37,511.12Z" transform="translate(-454.91 -449.92)" style="fill:#1e1b13"/><path d="M549.7,513.72c4.8-4.86,9.44-9.89,14.43-14.54,6.62-6.18,9.35-14,10-22.65.48-6,.6-12,.87-17.93a2.65,2.65,0,0,0-3.42-3.42c-6,.27-12,.39-17.93.87-8.68.7-16.47,3.42-22.65,10-4.65,5-9.68,9.63-14.54,14.43-1.28,1.26-2.54,2.55-4.14,4.15l16.75,16.44,16.44,16.75C547.16,516.26,548.44,515,549.7,513.72Z" transform="translate(-454.91 -449.92)" style="fill:#191917"/><path d="M490.5,529.23,461,540.86a7.78,7.78,0,0,0-2.65,12.73l17.91,17.91A7.78,7.78,0,0,0,489,568.85l11.63-29.54A7.78,7.78,0,0,0,490.5,529.23Zm5,9.2-9.16,22.82a3.05,3.05,0,0,1-5,1l-13.66-13.66a3.05,3.05,0,0,1,1-5l22.82-9.16A3.05,3.05,0,0,1,495.51,538.43Z" transform="translate(-454.91 -449.92)" style="fill:#191917"/><rect x="503.04" y="510.05" width="9.16" height="22.6" transform="translate(62.42 -656.16) rotate(45)" style="fill:#15130d"/><rect x="515.71" y="500.68" width="13.45" height="13.45" transform="translate(56.9 -670.72) rotate(45)" style="fill:#15130d"/></svg>