<svg xmlns="http://www.w3.org/2000/svg" width="143.47" height="143.47" viewBox="0 0 143.47 143.47"><title>HAT</title><path d="M72.92,0a71.57,71.57,0,0,0-26.6,4.64L50.2,8.57a10.75,10.75,0,0,0,9.65,3,61.22,61.22,0,0,1,64.61,90.88,3.88,3.88,0,0,0,.59,4.69l5.52,5.56A71.72,71.72,0,0,0,72.92,0Z"/><path d="M21.85,20.21c-.48.46-1,.93-1.42,1.41Z"/><path d="M71.54,132.94A61.2,61.2,0,0,1,11,62.81a10.67,10.67,0,0,0-3-9.09L3.6,49.28a71.72,71.72,0,0,0,107.22,82.58l-5.56-5.61a3.88,3.88,0,0,0-4.6-.68A60.94,60.94,0,0,1,71.54,132.94Z"/><path d="M103.06,113.41l10.39,10.3a5.74,5.74,0,1,0,8.09-8.15l-10.39-10.3Z"/><polygon points="41.57 11.05 32.91 23.29 31.03 17.88 26.15 22.76 22.79 19.4 16.87 25.33 20.23 28.68 15.34 33.57 20.76 35.45 8.52 44.11 13.91 49.5 37.14 48.05 50.54 61.33 46.97 77.96 52.18 83.18 56.69 87.68 62.3 72.99 66.36 77.02 63.27 87.11 67.34 91.18 71.31 81.93 99.06 109.44 107.14 101.29 79.45 73.83 88.64 69.87 84.57 65.81 74.48 68.9 70.4 64.86 85.15 59.22 80.64 54.72 75.43 49.5 58.57 53.13 45.48 40.15 46.97 16.44 41.57 11.05"/></svg>