<svg xmlns="http://www.w3.org/2000/svg" width="143.75" height="143.75" viewBox="0 0 143.75 143.75"><title>HMG</title><path d="M22.28,36a61.17,61.17,0,0,1,102.91,5.83h12A71.86,71.86,0,0,0,9.57,36Z" transform="translate(0.01)"/><path d="M14.53,93.27a61,61,0,0,1-3.86-21.4c0-.11,0-.22,0-.33H0c0,.11,0,.22,0,.33a71.58,71.58,0,0,0,6.36,29.55Z" transform="translate(0.01)"/><path d="M132.52,63.88a60.92,60.92,0,0,1-3.07,28.73l8.19,8.27a71.6,71.6,0,0,0,6.11-29,72.58,72.58,0,0,0-.45-8Z" transform="translate(0.01)"/><path d="M114.8,115.46a61.14,61.14,0,0,1-85.47.38H15a71.84,71.84,0,0,0,114-.37Z" transform="translate(0.01)"/><path d="M133.85,108.24l.35-.6L113.33,86.77l2-2L89.43,58.88l-2.36-2h5.8V55.22H127.5v1.66h14.34V55.5q-.79-3.39-1.9-6.66H127.5v1.07H92.87v-2H69.79V45.83l-4-4v4H34.88v-2H5.66A71.36,71.36,0,0,0,.88,60.61v3.3h24v2.94h14l5-5h8.07L29,84.78l2,2L9.75,108l.13.22,19.74.13L24,102.77,35.52,91.29l2,2L63.38,67.36h6.56V72.9H61.88v6h8.06v4H61.88v6h8.06v6H61.88v12.81h22V94.88H75.75v-6H81l2.86-3-2.86-3H75.75v-4H81l2.86-3L81,72.9H75.75V67.36H81l25.89,25.89,2-2,11.49,11.49-5.59,5.59Z" transform="translate(0.01)"/></svg>