<svg xmlns="http://www.w3.org/2000/svg" width="155" height="155" viewBox="0 0 155 155"><title>LMG</title><polygon points="26.42 123.65 26.54 123.41 26.36 123.59 26.42 123.65"/><path d="M92.53,36.73,90.1,34.31l-4.54-4.54-1.47,1.47,1.74,7.35L69.71,54.7l-1.6,1.6-4,4-.69.69-4-4-4.14,0-1,1-12,12-2.65,2.65,1.51,10.69-.52.52-1.88,1.88L17.15,107.26,30,120.09,42.72,94.43,45.13,92l.71-.71,2.66-2.66,7.26,15.46L62,97.86,57.36,89l2.22-2.22h0l7.9-7.9,7.6-7.6,4-4,1.6-1.6,3.24-3.24.21,0L98.76,47.74v-.19l.27-.27L98.77,47l0-4-2.34-2.34,17.18-17.18-3.95-3.95ZM62.28,80.09,56,86.36l-1.79-3.42,5.46-5.46Zm-5.75-12.2-8.19,8.19-4.14.09,0-3.14L56.75,60.44,60.36,64Z"/><polygon points="129.21 123.83 129.09 123.59 129.27 123.77 129.21 123.83"/><path d="M45.92,19.72,42,23.67,59.15,40.85l-2.34,2.34,0,4-.26.26.27.27v.19L71.52,62.58l.21,0L75,65.83l1.6,1.6,4,4,7.6,7.6,7.9,7.9h0l2.22,2.22L93.61,98l6.24,6.24,7.26-15.46,2.66,2.66.71.71,2.41,2.41,12.74,25.66,12.83-12.83L116.86,85.82,115,83.95l-.52-.52L116,72.73l-2.65-2.65-12-12-1-1-4.14,0-4,4-.69-.69-4-4-1.6-1.6L69.8,38.76l1.74-7.35-1.47-1.47-4.54,4.54L63.1,36.9ZM96,77.66l5.46,5.46-1.79,3.42-6.27-6.27Zm-.69-13.43,3.61-3.61L111.46,73.2l0,3.14-4.14-.09L99.1,68.06Z"/><polygon points="70.8 99.67 68.63 97.77 66.45 99.67 66.45 116.65 70.8 116.65 70.8 99.67"/><polygon points="79.68 99.67 77.5 97.77 75.32 99.67 75.32 116.65 79.68 116.65 79.68 99.67"/><polygon points="88.45 99.67 86.27 97.77 84.09 99.67 84.09 116.65 88.45 116.65 88.45 99.67"/><polygon points="24.89 88.89 13.5 77.5 49.97 41.03 43.22 34.28 0 77.5 18.14 95.64 24.89 88.89"/><polygon points="63.4 27.6 77.5 13.5 91.01 27.01 97.76 20.26 77.5 0 56.65 20.85 63.4 27.6"/><polygon points="104.98 40.98 141.5 77.5 129.52 89.48 136.27 96.23 155 77.5 111.73 34.23 104.98 40.98"/><polygon points="111.07 107.93 77.5 141.5 44.22 108.22 39.43 116.93 77.5 155 116.13 116.37 111.07 107.93"/></svg>