<svg xmlns="http://www.w3.org/2000/svg" width="156.87" height="156.87" viewBox="0 0 156.87 156.87"><title>Marksman</title><path d="M78.49,0,0,78.49l78.38,78.38,78.49-78.49Zm-.32,144.15L12.5,78.48,78.26,12.72l65.67,65.67Z"/><path d="M78.21,65.9a12.77,12.77,0,1,0,12.5,12.77A12.64,12.64,0,0,0,78.21,65.9Zm0,21.88a9.12,9.12,0,1,1,8.92-9.11A9,9,0,0,1,78.21,87.78Z"/><path d="M101,87l15.62,9V60.87L100.91,70a24.32,24.32,0,0,0-14.3-14.37l9-15.61H60.5l9.16,15.87A24.34,24.34,0,0,0,56,70L40.13,60.87V96l15.73-9.08a24.38,24.38,0,0,0,13.25,14.33L60.5,116.17H95.62l-8.46-14.65A24.34,24.34,0,0,0,101,87ZM78.46,96.17A17.5,17.5,0,1,1,95.6,78.67,17.32,17.32,0,0,1,78.46,96.17Z"/></svg>