<svg xmlns="http://www.w3.org/2000/svg" width="122.44" height="144.16" viewBox="0 0 122.44 144.16"><title>Medic</title><path d="M60.82,147.33c-5.28-3.92-10.35-7.67-15.42-11.44-14.15-10.53-28.26-21.12-42.5-31.54A6.33,6.33,0,0,1,0,98.55Q.14,63.32,0,28.09A6.66,6.66,0,0,1,3.26,22C17.09,12.08,32.37,5.68,49.19,3.84,74.83,1,98.35,7.11,119.36,22.35a6.53,6.53,0,0,1,3,5.85c-.07,23.49-.11,47,.08,70.46,0,3.11-1.61,4.51-3.6,6Q97.6,120.43,76.33,136.18c-3.74,2.78-7.46,5.58-11.23,8.33C63.78,145.47,62.37,146.31,60.82,147.33ZM11.74,30.14a7.45,7.45,0,0,0-.24,1c0,20.82,0,41.63-.11,62.45a5,5,0,0,0,2.46,4.48c10.35,7.55,20.61,15.22,30.9,22.86,5.33,4,10.64,7.93,16,12,1.33-.85,2.47-1.5,3.53-2.28,14.32-10.57,28.61-21.2,43-31.71,2.42-1.77,3.19-3.84,3.17-6.76-.1-18.65,0-37.31,0-56,0-6.39,0-6.39-5.69-9.64l-1.31-.72C86.24,16.46,68,12.81,48.56,15.68A85.35,85.35,0,0,0,11.74,30.14Z" transform="translate(0 -3.17)"/><path d="M61.05,120.2l-12.27-9.12C40.64,105,32.56,98.89,24.34,93a6.42,6.42,0,0,1-3-5.84q.12-23.47,0-46.95a5.84,5.84,0,0,1,3.54-5.91,76.06,76.06,0,0,1,32.9-8.87,75.62,75.62,0,0,1,34,6.27c2.86,1.28,5.58,2.86,8.34,4.29.1,1.34.23,2.32.23,3.29q0,24,0,47.95c0,2,0,3.77-2,5.24C86.11,101.47,73.88,110.65,61.05,120.2Zm8.08-24.8c.64-6.5-.22-12.49.64-19h19.3c-.11-6.17.21-11.74-.21-17.7H69.6c-.07-3.33-.14-6.28-.19-9.22-.06-3.11-.11-6.23-.16-9.23-5.62-1-13.13-.86-17,.33V58.71l-19,.31c.27,6-.4,11.59.45,17.27,6.33.56,12.45-.27,18.85.57V95.41Z" transform="translate(0 -3.17)"/></svg>