<svg xmlns="http://www.w3.org/2000/svg" width="155" height="155" viewBox="0 0 155 155"><title>Rifleman</title><path d="M104.41,44.67l-2.4-2.4L97.5,37.76,96,39.22l1.72,7.29L79.08,65.19l-4-4-4.11,0-1,1L58.12,74l-2.63,2.63L57,87.29,29.63,114.65l12.73,12.73L55,101.92l9.28-9.28L71.48,108l6.19-6.19L73.06,93l6.86-6.86,4.15.09L95.44,97.54l8.84-8.84L88.56,73,91,70.52l5-.38L110.59,55.6l.05-4.69-2.32-2.32,17-17-3.92-3.92ZM77.93,84.15l-6.22,6.22L69.94,87l5.41-5.41ZM76,68.24,64.1,80.17,60,80.26l0-3.12L72.45,64.66Z" transform="translate(0 0)"/><polygon points="35.36 99.36 13.5 77.5 77.5 13.5 101.48 37.48 108.23 30.73 77.5 0 0 77.5 28.61 106.11 35.36 99.36"/><polygon points="114.92 50.91 141.5 77.5 77.5 141.5 53.71 117.71 48.57 126.07 77.5 155 155 77.5 121.67 44.16 114.92 50.91"/></svg>