<svg xmlns="http://www.w3.org/2000/svg" width="144.75" height="143.55" viewBox="0 0 144.75 143.55"><title>Sapper-Icon</title><path d="M524.91,566.44l8-26.19c-4.58,1.8-7.56,5.45-11.89,7.61l-5.37-22.65-4.63,24.56-11.52-5.55,7,21.52L462,522.37l19.77,1.07-20.39-37.61L492,508.38l-.85-20.87,13.31,13.24,11-39.65,11.85,45.49s4.86-4.05,7.25-6,7.14-6.13,7.14-6.13l-.09,22.71,46.7-15.57Z" transform="translate(-443.57 -440.53)"/><path d="M450.64,481.5a72,72,0,0,0,55.78,102.58.72.72,0,0,0,.63-1.17L497.89,572a8.79,8.79,0,0,0-3.61-2.58,60.72,60.72,0,0,1-36.38-75.55Zm15.78-4.35A61.11,61.11,0,0,1,574.94,497.1l10.83-3.55A72.51,72.51,0,0,0,458,469.38ZM580.7,520.22a26.29,26.29,0,0,0-6.55,10.66q-.23.72-.47,1.43a61,61,0,0,1-36.06,37.12,8.76,8.76,0,0,0-3.65,2.65l-8.89,10.81a.72.72,0,0,0,.64,1.17,72.21,72.21,0,0,0,62.58-69.18q0-1.12,0-2.25Z" transform="translate(-443.57 -440.53)"/></svg>