<svg xmlns="http://www.w3.org/2000/svg" width="117.68" height="156.01" viewBox="0 0 117.68 156.01"><title>SquadLeader</title><path d="M58.9,0l58.67,43.22c0,1.37,0,2.68,0,4,0,16.82-.3,33.65.09,50.47.57,24.65-17.42,51-46.12,56.85-22,4.52-41.31-1.44-56.59-18.05-9.73-10.58-15-23.32-14.94-38Q.2,73,0,47.49c0-3.11.79-5.08,3.45-7,17.77-12.84,35.38-25.91,53-38.89C57.16,1.11,57.86.69,58.9,0ZM59,14.25c-1.49.93-2.8,1.63-4,2.5-13.49,10-26.9,20-40.48,29.85a6.56,6.56,0,0,0-3.18,6.1c.13,15.32,0,30.63.14,45.95A40.81,40.81,0,0,0,12.59,108c4.84,19.72,20.08,33.51,40.43,36.11A46,46,0,0,0,89.3,133.52c10-8.32,16.19-19.17,16.69-32.24.63-16.46.18-33,.25-49.44A4.86,4.86,0,0,0,104,47.31c-10-7.16-19.83-14.51-29.72-21.8C69.18,21.78,64.12,18,59,14.25Z"/><path d="M59.15,61.2C63.07,64,67.23,67,71.35,70,78.71,75.46,86,81,93.41,86.3c2.25,1.6,3.34,3.27,3.28,6.14-.12,6.81.12,13.59-3,20C86.82,126.23,76,133.94,60.42,134.78c-12.76.69-23-4.31-31.14-13.78a32.82,32.82,0,0,1-8.22-20.88c-.07-2.66.1-5.34-.08-8a5.77,5.77,0,0,1,2.59-5.51q17.12-12.45,34.2-25A6.54,6.54,0,0,1,59.15,61.2ZM28.78,92.91c-1.06,21.4,13.19,34.35,30.47,33.93,19.83-.48,31.15-16.18,29.41-34L58.75,70.81Z"/><path d="M58.76,53.3,21.06,80.93c0-3.49-.13-6.11.07-8.71a3.84,3.84,0,0,1,1.53-2.39Q40.1,57,57.62,44.24a10.69,10.69,0,0,1,1.5-.65L96.32,71v9.92Z"/><path d="M21.78,62.86A14.1,14.1,0,0,1,21.21,55c.17-1.23,1.49-2.52,2.6-3.36,8-6,16.07-11.8,24.11-17.7,3.47-2.55,6.91-5.15,10.67-8,1.27.9,2.46,1.72,3.62,2.57,10.18,7.48,20.23,15.13,30.6,22.33,3.08,2.14,4.17,4.43,3.8,7.85-.12,1.13-.15,2.26-.28,4.16-4.9-2.79-8.76-6.06-12.86-8.93s-8-5.9-12-8.86L58.77,35.74Z"/></svg>